<svg width="100%" height="100%" xmlns="http://www.w3.org/2000/svg">
  <!-- Фон карты -->
  <rect width="100%" height="100%" fill="#f0f0f0" />

    <polygon
        points="50,200 840,200 840,170 960,170 960,200 
        1200,200 1200,170 1250,170 1250,130 1300,130 
        1300,280 1220,280 1220,250 960,250 960,360 
        840,360 840,250 470,250 470,360 290,360 290,250 
        50,250" 
        fill="#f9f9ff" stroke="#6633FF" stroke-width="1" />
  <text x="150" y="230" font-family="'Roboto', sans-serif"
  fill="black" font-size="18" text-anchor="middle" 
  alignment-baseline="middle">Коридор</text>

  <polygon id="кабинет" 
        class="кабинеты" 
        points="200,100 200,200 280,200 280,100" 
        fill=" #E0E0E0" stroke="black" stroke-width="1" />
  <text x="240" y="150" font-family="'Roboto', sans-serif"
  fill="black" font-size="18" text-anchor="middle" 
  alignment-baseline="middle">302</text>

    <polygon  
        points="230,200 250,200" 
        fill="#999999" stroke="#f9f9ff" stroke-width="4" />

    <polygon id="кабинет" 
        class="кабинеты" 
        points="280,100 280,200 430,200 430,100" 
        fill=" #E0E0E0" stroke="black" stroke-width="1" />
  <text x="330" y="150" font-family="'Roboto', sans-serif"
  fill="black" font-size="18" text-anchor="middle" 
  alignment-baseline="middle">304</text>

    <polygon  
        points="300,200 320,200" 
        fill="#999999" stroke="#f9f9ff" stroke-width="4" />

    <polygon  
        points="395,200 415,200" 
        fill="#999999" stroke="#f9f9ff" stroke-width="4" />

  <polygon id="лесница" 
        class="лесницыы" 
        points="430,100 430,200 480,200 480,100" 
        fill="rgb(82, 87, 126)" stroke="black" stroke-width="1" />
  <image href="лесница.svg" x="440" y="140" width="30" height="30" />

  <polygon id="кабинет" 
        class="кабинеты" 
        points="480,100 480,200 580,200 580,100" 
        fill=" #E0E0E0" stroke="black" stroke-width="1" />
  <text x="530" y="150" font-family="'Roboto', sans-serif"
  fill="black" font-size="18" text-anchor="middle" 
  alignment-baseline="middle">306</text>

    <polygon  
        points="540,200 560,200" 
        fill="#999999" stroke="#f9f9ff" stroke-width="4" />

  <polygon id="кабинет" 
        class="кабинеты" 
        points="580,100 580,200 680,200 680,100" 
        fill=" #E0E0E0" stroke="black" stroke-width="1" />
  <text x="630" y="150" font-family="'Roboto', sans-serif"
  fill="black" font-size="18" text-anchor="middle" 
  alignment-baseline="middle">308</text>

    <polygon  
        points="640,200 660,200" 
        fill="#999999" stroke="#f9f9ff" stroke-width="4" />

  <polygon id="кабинет" 
        class="кабинеты" 
        points="680,100 680,200 790,200 790,100" 
        fill=" #E0E0E0" stroke="black" stroke-width="1" />
  <text x="730" y="150" font-family="'Roboto', sans-serif"
  fill="black" font-size="18" text-anchor="middle" 
  alignment-baseline="middle">310</text>

      <polygon  
        points="750,200 770,200" 
        fill="#999999" stroke="#f9f9ff" stroke-width="4" />

  <polygon id="кабинет" 
        class="кабинеты" 
        points="790,100 790,200 840,200 840,100" 
        fill=" #E0E0E0" stroke="black" stroke-width="1" />
  <text x="815" y="150" font-family="'Roboto', sans-serif"
  fill="black" font-size="18" text-anchor="middle" 
  alignment-baseline="middle">312</text>

    <polygon  
        points="805,200 825,200" 
        fill="#999999" stroke="#f9f9ff" stroke-width="4" />

  <polygon id="кабинет" 
        class="кабинеты" 
        points="840,70 840,170 960,170 960,70" 
        fill=" #E0E0E0" stroke="black" stroke-width="1" />
  <text x="900" y="120" font-family="'Roboto', sans-serif"
  fill="black" font-size="18" text-anchor="middle" 
  alignment-baseline="middle">314</text>

    <polygon  
        points="850,170 870,170" 
        fill="#999999" stroke="#f9f9ff" stroke-width="4" />

    <polygon  
        points="920,170 940,170" 
        fill="#999999" stroke="#f9f9ff" stroke-width="4" />

  <polygon id="кабинет" 
        class="кабинеты" 
        points="960,100 960,200 1000,200 1000,100" 
        fill=" #E0E0E0" stroke="black" stroke-width="1" />
  <text x="980" y="150" font-family="'Roboto', sans-serif"
  fill="black" font-size="16" text-anchor="middle" 
  alignment-baseline="middle">316</text>

    <polygon  
        points="970,200 990,200" 
        fill="#999999" stroke="#f9f9ff" stroke-width="4" />

  <polygon id="лесница" 
        class="лесницыы" 
        points="1000,100 1000,200 1050,200 1050,100" 
        fill="rgb(82, 87, 126)" stroke="black" stroke-width="1" />
  <image href="лесница.svg" x="1010" y="140" width="30" height="30" />

  <polygon id="кабинет" 
        class="кабинеты" 
        points="1050,130 1050,200 1120,200 1120,130" 
        fill=" #E0E0E0" stroke="black" stroke-width="1" />
  <text x="1080" y="170" font-family="'Roboto', sans-serif"
  fill="black" font-size="16" text-anchor="middle" 
  alignment-baseline="middle">318</text>

    <polygon  
        points="1070,200 1090,200" 
        fill="#999999" stroke="#f9f9ff" stroke-width="4" />

  <polygon id="кабинет" 
        class="кабинеты" 
        points="1120,130 1120,200 1200,200 1200,130" 
        fill=" #E0E0E0" stroke="black" stroke-width="1" />
  <text x="1150" y="170" font-family="'Roboto', sans-serif"
  fill="black" font-size="16" text-anchor="middle" 
  alignment-baseline="middle">320</text>

    <polygon  
        points="1160,200 1180,200" 
        fill="#999999" stroke="#f9f9ff" stroke-width="4" />

  <polygon id="кабинет" 
        class="кабинеты" 
        points="1200,130 1200,190 1300,190 1300,130" 
        fill=" #E0E0E0" stroke="black" stroke-width="1" />
  <text x="1240" y="170" font-family="'Roboto', sans-serif"
  fill="black" font-size="16" text-anchor="middle" 
  alignment-baseline="middle">322</text>

    <polygon  
        points="1260,190 1280,190" 
        fill="#999999" stroke="#f9f9ff" stroke-width="4" />

  <polygon id="кабинет" 
        class="кабинеты" 
        points="1300,130 1300,250 1450,250 1450,130" 
        fill=" #E0E0E0" stroke="black" stroke-width="1" />
  <text x="1370" y="190" font-family="'Roboto', sans-serif"
  fill="black" font-size="16" text-anchor="middle" 
  alignment-baseline="middle">324</text>

    <polygon  
        points="1300,200 1300,220" 
        fill="#999999" stroke="#f9f9ff" stroke-width="4" />

  <polygon id="лесница" 
        class="лесницыы" 
        points="50,250 50,320 100,320 100,250" 
        fill="rgb(82, 87, 126)" stroke="black" stroke-width="1" />
  <image href="лесница.svg" x="60" y="270" width="30" height="30" />

  <polygon id="кабинет" 
        class="кабинеты" 
        points="100,250 100,320 150,320 150,250" 
        fill=" #E0E0E0" stroke="black" stroke-width="1" />

    <polygon  
        points="115,250 135,250" 
        fill="#999999" stroke="#f9f9ff" stroke-width="4" />

  <polygon id="кабинет" 
        class="кабинеты" 
        points="150,250 150,320 200,320 200,250" 
        fill=" #E0E0E0" stroke="black" stroke-width="1" />
  <text x="175" y="290" font-family="'Roboto', sans-serif"
  fill="black" font-size="18" text-anchor="middle" 
  alignment-baseline="middle">301</text>

    <polygon  
        points="165,250 185,250" 
        fill="#999999" stroke="#f9f9ff" stroke-width="4" />

  <polygon id="кабинет" 
        class="кабинеты" 
        points="200,250 200,350 250,350 250,250" 
        fill=" #E0E0E0" stroke="black" stroke-width="1" />
  <text x="225" y="300" font-family="'Roboto', sans-serif"
  fill="black" font-size="18" text-anchor="middle" 
  alignment-baseline="middle">303</text>

    <polygon  
        points="215,250 235,250" 
        fill="#999999" stroke="#f9f9ff" stroke-width="4" />

  <polygon id="кабинет" 
        class="кабинеты" 
        points="250,250 250,350 290,350 290,250" 
        fill=" #E0E0E0" stroke="black" stroke-width="1" />
  <text x="270" y="300" font-family="'Roboto', sans-serif"
  fill="black" font-size="18" text-anchor="middle" 
  alignment-baseline="middle">305</text>

    <polygon  
        points="260,250 280,250" 
        fill="#999999" stroke="#f9f9ff" stroke-width="4" />

  <polygon id="кабинет" 
        class="кабинеты" 
        points="290,250 290,360 330,360 330,250" 
        fill=" #E0E0E0" stroke="black" stroke-width="1" />

  <polygon id="кабинет" 
        class="кабинеты" 
        points="330,250 330,360 470,360 470,250" 
        fill=" #E0E0E0" stroke="black" stroke-width="1" />
  <text x="400" y="300" font-family="'Roboto', sans-serif"
  fill="black" font-size="18" text-anchor="middle" 
  alignment-baseline="middle">307</text>

  <polygon  
        points="330,260 330,280" 
        fill="#999999" stroke="#f9f9ff" stroke-width="4" />

  <polygon  
        points="440,250 460,250" 
        fill="#999999" stroke="#f9f9ff" stroke-width="4" />

  <polygon id="кабинет" 
        class="кабинеты" 
        points="470,250 470,350 580,350 580,250" 
        fill=" #E0E0E0" stroke="black" stroke-width="1" />
  <text x="520" y="300" font-family="'Roboto', sans-serif"
  fill="black" font-size="18" text-anchor="middle" 
  alignment-baseline="middle">309</text>

    <polygon  
        points="510,250 530,250" 
        fill="#999999" stroke="#f9f9ff" stroke-width="4" />

  <polygon id="кабинет" 
        class="кабинеты" 
        points="580,250 580,350 680,350 680,250" 
        fill=" #E0E0E0" stroke="black" stroke-width="1" />
  <text x="620" y="300" font-family="'Roboto', sans-serif"
  fill="black" font-size="18" text-anchor="middle" 
  alignment-baseline="middle">311</text>

  <polygon  
        points="620,250 640,250" 
        fill="#999999" stroke="#f9f9ff" stroke-width="4" />


  <polygon id="кабинет" 
        class="кабинеты" 
        points="680,250 680,350 730,350 730,250" 
        fill=" #E0E0E0" stroke="black" stroke-width="1" />
  <text x="705" y="300" font-family="'Roboto', sans-serif"
  fill="black" font-size="18" text-anchor="middle" 
  alignment-baseline="middle">313</text>

    <polygon  
        points="695,250 715,250" 
        fill="#999999" stroke="#f9f9ff" stroke-width="4" />

  <polygon id="кабинет" 
        class="кабинеты" 
        points="730,250 730,350 780,350 780,250" 
        fill=" #E0E0E0" stroke="black" stroke-width="1" />
  <text x="750" y="300" font-family="'Roboto', sans-serif"
  fill="black" font-size="18" text-anchor="middle" 
  alignment-baseline="middle">315</text>

    <polygon id="кабинет" 
        class="кабинеты" 
        points="780,250 780,350 840,350 840,250" 
        fill=" #E0E0E0" stroke="black" stroke-width="1" />

    <polygon  
        points="750,250 770,250" 
        fill="#999999" stroke="#f9f9ff" stroke-width="4" />

    <polygon  
        points="780,290 780,310" 
        fill="#999999" stroke="#f9f9ff" stroke-width="4" />

     <polygon id="кабинет" 
        class="кабинеты" 
        points="840,250 840,360 960,360 960,250" 
        fill=" #E0E0E0" stroke="black" stroke-width="1" />
  <text x="900" y="300" font-family="'Roboto', sans-serif"
  fill="black" font-size="16" text-anchor="middle" 
  alignment-baseline="middle">Читальный зал</text> 

      <polygon  
        points="860,250 880,250" 
        fill="#999999" stroke="#f9f9ff" stroke-width="4" />    

  <polygon id="кабинет" 
        class="кабинеты" 
        points="960,250 960,330 1000,330 1000,250" 
        fill=" #E0E0E0" stroke="black" stroke-width="1" />

  <polygon  
        points="970,250 990,250" 
        fill="#999999" stroke="#f9f9ff" stroke-width="4" />

  <polygon id="кабинет" 
        class="кабинеты" 
        points="1000,300 1000,330 1060,330 1060,300" 
        fill=" #E0E0E0" stroke="black" stroke-width="1" />

  <polygon id="кабинет" 
        class="кабинеты" 
        points="1000,250 1000,300 1030,300 1030,250" 
        fill=" #E0E0E0" stroke="black" stroke-width="1" />

  <polygon id="кабинет" 
        class="кабинеты" 
        points="1030,250 1030,300 1060,300 1060,250" 
        fill=" #E0E0E0" stroke="black" stroke-width="1" />

  <polygon  
        points="1010,250 1020,250" 
        fill="#999999" stroke="#f9f9ff" stroke-width="4" />

  <polygon  
        points="1000,310 1000,320" 
        fill="#999999" stroke="#f9f9ff" stroke-width="4" />

  <polygon  
        points="1030,260 1030,270" 
        fill="#999999" stroke="#f9f9ff" stroke-width="4" />

  <polygon id="кабинет" 
        class="кабинеты" 
        points="1060,250 1060,310 1120,310 1120,250" 
        fill=" #E0E0E0" stroke="black" stroke-width="1" />
  <text x="1090" y="290" font-family="'Roboto', sans-serif"
  fill="black" font-size="18" text-anchor="middle" 
  alignment-baseline="middle">317</text>

  <polygon id="кабинет" 
        class="кабинеты" 
        points="1120,250 1120,310 1220,310 1220,250" 
        fill=" #E0E0E0" stroke="black" stroke-width="1" />
  <text x="1170" y="290" font-family="'Roboto', sans-serif"
  fill="black" font-size="18" text-anchor="middle" 
  alignment-baseline="middle">319</text>

  <polygon  
        points="1080,250 1100,250" 
        fill="#999999" stroke="#f9f9ff" stroke-width="4" />

  <polygon  
        points="1180,250 1200,250" 
        fill="#999999" stroke="#f9f9ff" stroke-width="4" />

  <polygon id="кабинет" 
        class="кабинеты" 
        points="1220,280 1220,330 1300,330 1300,280" 
        fill=" #E0E0E0" stroke="black" stroke-width="1" />
  <text x="1260" y="310" font-family="'Roboto', sans-serif"
  fill="black" font-size="18" text-anchor="middle" 
  alignment-baseline="middle">321</text>

  <polygon  
        points="1230,280 1250,280" 
        fill="#999999" stroke="#f9f9ff" stroke-width="4" />

  <polygon id="кабинет" 
        class="кабинеты" 
        points="1300,250 1300,360 1450,360 1450,250" 
        fill=" #E0E0E0" stroke="black" stroke-width="1" />
  <text x="1375" y="300" font-family="'Roboto', sans-serif"
  fill="black" font-size="18" text-anchor="middle" 
  alignment-baseline="middle">323</text>

  <polygon  
        points="1300,270 1300,260" 
        fill="#999999" stroke="#f9f9ff" stroke-width="4" />

  <polygon
        points="50,200 50,320 200,320 200,350 290,350 
        290,360 470,360 470,350 840,350 840,360 960,360 
        960,330 1060,330 1060,310 1220,310 1220,330 1300,330 
        1300,360 1450,360 1450,130 1250,130 1250,130 1200,130 
        1200,130 1050,130 1050,100 960,100 960,70 840,70 840,100 
        200,100 200,200" 
        fill="none" stroke="black" stroke-width="2" />

</svg>