<svg width="100%" height="100%" xmlns="http://www.w3.org/2000/svg">
  <!-- Фон карты -->
  <rect width="100%" height="100%" fill="#f0f0f0" />

    <polygon
        points="50,200 840,200 840,170 960,170 960,200 
        1200,200 1200,170 1250,170 1250,130 1300,130 
        1300,280 1220,280 1220,250 960,250 960,360 
        840,360 840,250 470,250 470,360 290,360 290,250 
        50,250" 
        fill="#f9f9ff" stroke="#6633FF" stroke-width="1" />
  <text x="150" y="230" font-family="'Roboto', sans-serif"
  fill="black" font-size="18" text-anchor="middle" 
  alignment-baseline="middle">Коридор</text>

  <polygon id="кабинет" 
        class="кабинеты" 
        points="200,100 200,200 280,200 280,100" 
        fill=" #E0E0E0" stroke="black" stroke-width="1" />
  <text x="240" y="150" font-family="'Roboto', sans-serif"
  fill="black" font-size="18" text-anchor="middle" 
  alignment-baseline="middle">202</text>

    <polygon  
        points="230,200 250,200" 
        fill="#999999" stroke="#f9f9ff" stroke-width="4" />

    <polygon id="кабинет" 
        class="кабинеты" 
        points="280,100 280,200 380,200 380,100" 
        fill=" #E0E0E0" stroke="black" stroke-width="1" />
  <text x="330" y="150" font-family="'Roboto', sans-serif"
  fill="black" font-size="18" text-anchor="middle" 
  alignment-baseline="middle">204</text>

  <polygon id="кабинет" 
        class="кабинеты" 
        points="380,100 380,170 430,170 430,100" 
        fill=" #E0E0E0" stroke="black" stroke-width="1" />
  <text x="405" y="150" font-family="'Roboto', sans-serif"
  fill="black" font-size="18" text-anchor="middle" 
  alignment-baseline="middle">204A</text>

  <polygon id="кабинет" 
        class="кабинеты" 
        points="380,170 380,200 430,200 430,170" 
        fill=" #E0E0E0" stroke="black" stroke-width="1" />

    <polygon  
        points="380,190 380,180" 
        fill="#999999" stroke="#f9f9ff" stroke-width="4" />

    <polygon  
        points="395,170 415,170" 
        fill="#999999" stroke="#f9f9ff" stroke-width="4" />

    <polygon  
        points="395,200 415,200" 
        fill="#999999" stroke="#f9f9ff" stroke-width="4" />

  <polygon id="лесница" 
        class="лесницыы" 
        points="430,100 430,200 480,200 480,100" 
        fill="rgb(82, 87, 126)" stroke="black" stroke-width="1" />
  <image href="лесница.svg" x="440" y="140" width="30" height="30" />

  <polygon id="кабинет" 
        class="кабинеты" 
        points="480,100 480,200 580,200 580,100" 
        fill=" #E0E0E0" stroke="black" stroke-width="1" />
  <text x="530" y="150" font-family="'Roboto', sans-serif"
  fill="black" font-size="18" text-anchor="middle" 
  alignment-baseline="middle">206</text>

    <polygon  
        points="540,200 560,200" 
        fill="#999999" stroke="#f9f9ff" stroke-width="4" />

  <polygon id="кабинет" 
        class="кабинеты" 
        points="580,100 580,200 620,200 620,100" 
        fill=" #E0E0E0" stroke="black" stroke-width="1" />

  <polygon id="кабинет" 
        class="кабинеты" 
        points="620,100 620,200 680,200 680,100" 
        fill=" #E0E0E0" stroke="black" stroke-width="1" />
  <text x="650" y="150" font-family="'Roboto', sans-serif"
  fill="black" font-size="18" text-anchor="middle" 
  alignment-baseline="middle">210</text>

    <polygon  
        points="620,190 620,170" 
        fill="#999999" stroke="#f9f9ff" stroke-width="4" />

    <polygon  
        points="640,200 660,200" 
        fill="#999999" stroke="#f9f9ff" stroke-width="4" />

  <polygon id="кабинет" 
        class="кабинеты" 
        points="680,100 680,200 740,200 740,100" 
        fill=" #E0E0E0" stroke="black" stroke-width="1" />

    <polygon  
        points="690,200 710,200" 
        fill="#999999" stroke="#f9f9ff" stroke-width="4" />

  <polygon id="кабинет" 
        class="кабинеты" 
        points="740,100 740,200 790,200 790,100" 
        fill=" #E0E0E0" stroke="black" stroke-width="1" />
  <text x="765" y="150" font-family="'Roboto', sans-serif"
  fill="black" font-size="18" text-anchor="middle" 
  alignment-baseline="middle">212</text>

    <polygon  
        points="740,190 740,170" 
        fill="#999999" stroke="#f9f9ff" stroke-width="4" />

  <polygon id="кабинет" 
        class="кабинеты" 
        points="790,100 790,200 840,200 840,100" 
        fill=" #E0E0E0" stroke="black" stroke-width="1" />
  <text x="815" y="150" font-family="'Roboto', sans-serif"
  fill="black" font-size="18" text-anchor="middle" 
  alignment-baseline="middle">214</text>

    <polygon  
        points="805,200 825,200" 
        fill="#999999" stroke="#f9f9ff" stroke-width="4" />

  <polygon id="кабинет" 
        class="кабинеты" 
        points="840,70 840,170 960,170 960,70" 
        fill=" #E0E0E0" stroke="black" stroke-width="1" />
  <text x="900" y="120" font-family="'Roboto', sans-serif"
  fill="black" font-size="18" text-anchor="middle" 
  alignment-baseline="middle">216</text>

    <polygon  
        points="850,170 870,170" 
        fill="#999999" stroke="#f9f9ff" stroke-width="4" />

    <polygon  
        points="920,170 940,170" 
        fill="#999999" stroke="#f9f9ff" stroke-width="4" />

  <polygon id="кабинет" 
        class="кабинеты" 
        points="960,100 960,200 1000,200 1000,100" 
        fill=" #E0E0E0" stroke="black" stroke-width="1" />
  <text x="980" y="150" font-family="'Roboto', sans-serif"
  fill="black" font-size="16" text-anchor="middle" 
  alignment-baseline="middle">216A</text>

    <polygon  
        points="970,200 990,200" 
        fill="#999999" stroke="#f9f9ff" stroke-width="4" />

  <polygon id="лесница" 
        class="лесницыы" 
        points="1000,100 1000,200 1050,200 1050,100" 
        fill="rgb(82, 87, 126)" stroke="black" stroke-width="1" />
  <image href="лесница.svg" x="1010" y="140" width="30" height="30" />

  <polygon id="кабинет" 
        class="кабинеты" 
        points="1050,130 1050,200 1100,200 1100,130" 
        fill=" #E0E0E0" stroke="black" stroke-width="1" />

  <polygon id="кабинет" 
        class="кабинеты" 
        points="1100,130 1100,200 1200,200 1200,130" 
        fill=" #E0E0E0" stroke="black" stroke-width="1" />
  <text x="1150" y="170" font-family="'Roboto', sans-serif"
  fill="black" font-size="16" text-anchor="middle" 
  alignment-baseline="middle">220</text>

    <polygon  
        points="1160,200 1180,200" 
        fill="#999999" stroke="#f9f9ff" stroke-width="4" />

    <polygon  
        points="1100,190 1100,170" 
        fill="#999999" stroke="#f9f9ff" stroke-width="4" />

  <polygon id="лесница" 
        class="лесницыы" 
        points="1200,100 1200,170 1250,170 1250,100" 
        fill="rgb(82, 87, 126)" stroke="black" stroke-width="1" />
  <image href="лесница.svg" x="1210" y="130" width="30" height="30" />

  <polygon id="кабинет" 
        class="кабинеты" 
        points="1300,130 1300,250 1450,250 1450,130" 
        fill=" #E0E0E0" stroke="black" stroke-width="1" />
  <text x="1370" y="190" font-family="'Roboto', sans-serif"
  fill="black" font-size="16" text-anchor="middle" 
  alignment-baseline="middle">222</text>

    <polygon  
        points="1300,150 1300,170" 
        fill="#999999" stroke="#f9f9ff" stroke-width="4" />

  <polygon id="лесница" 
        class="лесницыы" 
        points="50,250 50,320 100,320 100,250" 
        fill="rgb(82, 87, 126)" stroke="black" stroke-width="1" />
  <image href="лесница.svg" x="60" y="270" width="30" height="30" />

  <polygon id="кабинет" 
        class="кабинеты" 
        points="100,250 100,320 150,320 150,250" 
        fill=" #E0E0E0" stroke="black" stroke-width="1" />
  <text x="125" y="290" font-family="'Roboto', sans-serif"
  fill="black" font-size="18" text-anchor="middle" 
  alignment-baseline="middle">201</text>

    <polygon  
        points="115,250 135,250" 
        fill="#999999" stroke="#f9f9ff" stroke-width="4" />

  <polygon id="кабинет" 
        class="кабинеты" 
        points="150,250 150,320 200,320 200,250" 
        fill=" #E0E0E0" stroke="black" stroke-width="1" />
  <text x="175" y="290" font-family="'Roboto', sans-serif"
  fill="black" font-size="18" text-anchor="middle" 
  alignment-baseline="middle">203</text>

    <polygon  
        points="165,250 185,250" 
        fill="#999999" stroke="#f9f9ff" stroke-width="4" />

  <polygon id="кабинет" 
        class="кабинеты" 
        points="200,250 200,350 250,350 250,250" 
        fill=" #E0E0E0" stroke="black" stroke-width="1" />
  <text x="225" y="300" font-family="'Roboto', sans-serif"
  fill="black" font-size="18" text-anchor="middle" 
  alignment-baseline="middle">205</text>

    <polygon  
        points="215,250 235,250" 
        fill="#999999" stroke="#f9f9ff" stroke-width="4" />

  <polygon id="кабинет" 
        class="кабинеты" 
        points="250,250 250,350 290,350 290,250" 
        fill=" #E0E0E0" stroke="black" stroke-width="1" />
  <text x="270" y="300" font-family="'Roboto', sans-serif"
  fill="black" font-size="18" text-anchor="middle" 
  alignment-baseline="middle">207</text>

    <polygon  
        points="260,250 280,250" 
        fill="#999999" stroke="#f9f9ff" stroke-width="4" />

  <polygon id="кабинет" 
        class="кабинеты" 
        points="470,250 470,350 525,350 525,250" 
        fill=" #E0E0E0" stroke="black" stroke-width="1" />
  <text x="495" y="300" font-family="'Roboto', sans-serif"
  fill="black" font-size="18" text-anchor="middle" 
  alignment-baseline="middle">209</text>

    <polygon  
        points="490,250 510,250" 
        fill="#999999" stroke="#f9f9ff" stroke-width="4" />

  <polygon id="кабинет" 
        class="кабинеты" 
        points="525,250 525,350 580,350 580,250" 
        fill=" #E0E0E0" stroke="black" stroke-width="1" />

    <polygon  
        points="540,250 560,250" 
        fill="#999999" stroke="#f9f9ff" stroke-width="4" />

    <polygon  
        points="525,260 525,280" 
        fill="#999999" stroke="#f9f9ff" stroke-width="4" />

  <polygon id="кабинет" 
        class="кабинеты" 
        points="580,250 580,350 625,350 625,250" 
        fill=" #E0E0E0" stroke="black" stroke-width="1" />
  <text x="605" y="300" font-family="'Roboto', sans-serif"
  fill="black" font-size="18" text-anchor="middle" 
  alignment-baseline="middle">213</text>

  <polygon  
        points="590,250 610,250" 
        fill="#999999" stroke="#f9f9ff" stroke-width="4" />

  <polygon id="кабинет" 
        class="кабинеты" 
        points="625,250 625,350 680,350 680,250" 
        fill=" #E0E0E0" stroke="black" stroke-width="1" />
  <text x="650" y="300" font-family="'Roboto', sans-serif"
  fill="black" font-size="18" text-anchor="middle" 
  alignment-baseline="middle">215</text>

    <polygon  
        points="640,250 660,250" 
        fill="#999999" stroke="#f9f9ff" stroke-width="4" />

  <polygon id="кабинет" 
        class="кабинеты" 
        points="680,250 680,350 730,350 730,250" 
        fill=" #E0E0E0" stroke="black" stroke-width="1" />
  <text x="705" y="300" font-family="'Roboto', sans-serif"
  fill="black" font-size="18" text-anchor="middle" 
  alignment-baseline="middle">217</text>

    <polygon  
        points="695,250 715,250" 
        fill="#999999" stroke="#f9f9ff" stroke-width="4" />

  <polygon id="кабинет" 
        class="кабинеты" 
        points="730,250 730,350 840,350 840,250" 
        fill=" #E0E0E0" stroke="black" stroke-width="1" />
  <text x="780" y="300" font-family="'Roboto', sans-serif"
  fill="black" font-size="18" text-anchor="middle" 
  alignment-baseline="middle">219</text>

    <polygon  
        points="750,250 770,250" 
        fill="#999999" stroke="#f9f9ff" stroke-width="4" />

  <polygon id="кабинет" 
        class="кабинеты" 
        points="960,250 960,330 1000,330 1000,250" 
        fill=" #E0E0E0" stroke="black" stroke-width="1" />

  <polygon  
        points="970,250 990,250" 
        fill="#999999" stroke="#f9f9ff" stroke-width="4" />

  <polygon id="кабинет" 
        class="кабинеты" 
        points="1000,300 1000,330 1060,330 1060,300" 
        fill=" #E0E0E0" stroke="black" stroke-width="1" />

  <polygon id="кабинет" 
        class="кабинеты" 
        points="1000,250 1000,300 1030,300 1030,250" 
        fill=" #E0E0E0" stroke="black" stroke-width="1" />

  <polygon id="кабинет" 
        class="кабинеты" 
        points="1030,250 1030,300 1060,300 1060,250" 
        fill=" #E0E0E0" stroke="black" stroke-width="1" />

  <polygon  
        points="1010,250 1020,250" 
        fill="#999999" stroke="#f9f9ff" stroke-width="4" />

  <polygon  
        points="1000,310 1000,320" 
        fill="#999999" stroke="#f9f9ff" stroke-width="4" />

  <polygon  
        points="1030,260 1030,270" 
        fill="#999999" stroke="#f9f9ff" stroke-width="4" />

  <polygon id="кабинет" 
        class="кабинеты" 
        points="1060,250 1060,310 1200,310 1200,250" 
        fill=" #E0E0E0" stroke="black" stroke-width="1" />
  <text x="1120" y="270" font-family="'Roboto', sans-serif"
  fill="black" font-size="18" text-anchor="middle" 
  alignment-baseline="middle">221</text>

  <polygon  
        points="1070,250 1090,250" 
        fill="#999999" stroke="#f9f9ff" stroke-width="4" />

  <polygon id="кабинет" 
        class="кабинеты" 
        points="1140,250 1140,310 1220,310 1220,250" 
        fill=" #E0E0E0" stroke="black" stroke-width="1" />

  <polygon  
        points="1140,280 1140,300" 
        fill="#999999" stroke="#f9f9ff" stroke-width="4" />

  <polygon id="кабинет" 
        class="кабинеты" 
        points="1220,280 1220,330 1300,330 1300,280" 
        fill=" #E0E0E0" stroke="black" stroke-width="1" />
  <text x="1260" y="310" font-family="'Roboto', sans-serif"
  fill="black" font-size="18" text-anchor="middle" 
  alignment-baseline="middle">223</text>

  <polygon  
        points="1230,280 1250,280" 
        fill="#999999" stroke="#f9f9ff" stroke-width="4" />

  <polygon id="кабинет" 
        class="кабинеты" 
        points="1300,250 1300,360 1450,360 1450,250" 
        fill=" #E0E0E0" stroke="black" stroke-width="1" />
  <text x="1375" y="300" font-family="'Roboto', sans-serif"
  fill="black" font-size="18" text-anchor="middle" 
  alignment-baseline="middle">224</text>

  <polygon  
        points="1300,270 1300,260" 
        fill="#999999" stroke="#f9f9ff" stroke-width="4" />

  <polygon
        points="50,200 50,320 200,320 200,350 290,350 
        290,360 470,360 470,350 840,350 840,360 960,360 
        960,330 1060,330 1060,310 1220,310 1220,330 1300,330 
        1300,360 1450,360 1450,130 1250,130 1250,100 1200,100 
        1200,130 1050,130 1050,100 960,100 960,70 840,70 840,100 
        200,100 200,200" 
        fill="none" stroke="black" stroke-width="2" />

</svg>