<svg width="100%" height="100%" xmlns="http://www.w3.org/2000/svg">
  <!-- Фон карты -->
  <rect width="100%" height="100%" fill="#f0f0f0" />

    <polygon
        points="520,230 520,780 450,780 450,830 620,830 
        620,810 550,810 550,300 580,300 580,230" 
        fill="#f9f9ff" stroke="#6633FF" stroke-width="1" />
    <polygon
        points="660,120 660,170 1080,170 1080,230 
        1130,230 1130,170 1190,170 1190,230 1160,230 
        1160,300 1200,300 1200,830 1230,830 1230,120" 
        fill="#f9f9ff" stroke="#6633FF" stroke-width="1" />
  <text x="710" y="145" font-family="'Roboto', sans-serif"
  fill="black" font-size="18" text-anchor="middle" 
  alignment-baseline="middle">Коридор</text>
  
  <polygon id="кабинет" 
        class="кабинеты" 
        points="100,100 100,300 300,300 300,100" 
        fill=" #E0E0E0" stroke="black" stroke-width="1" />

  <polygon id="кабинет" 
        class="кабинеты" 
        points="300,120 300,300 520,300 520,120" 
        fill=" #E0E0E0" stroke="black" stroke-width="1" />

  <polygon id="кабинет" 
        class="кабинеты" 
        points="520,120 520,230 660,230 660,120" 
        fill=" #E0E0E0" stroke="black" stroke-width="1" />
  <text x="590" y="170" font-family="'Roboto', sans-serif"
  fill="black" font-size="18" text-anchor="middle" 
  alignment-baseline="middle">419</text>

  <polygon id="кабинет" 
        class="кабинеты" 
        points="660,170 660,300 880,300 880,170" 
        fill=" #E0E0E0" stroke="black" stroke-width="1" />
  <text x="770" y="240" font-family="'Roboto', sans-serif"
  fill="black" font-size="18" text-anchor="middle" 
  alignment-baseline="middle">424</text>

  <polygon id="кабинет" 
        class="кабинеты" 
        points="880,170 880,300 1080,300 1080,170" 
        fill=" #E0E0E0" stroke="black" stroke-width="1" />
  <text x="980" y="240" font-family="'Roboto', sans-serif"
  fill="black" font-size="18" text-anchor="middle" 
  alignment-baseline="middle">422</text>

  <polygon id="кабинет" 
        class="кабинеты" 
        points="1380,100 1380,300 1580,300 1580,100" 
        fill=" #E0E0E0" stroke="black" stroke-width="1" />

  <polygon id="кабинет" 
        class="кабинеты" 
        points="1230,120 1230,300 1380,300 1380,120" 
        fill=" #E0E0E0" stroke="black" stroke-width="1" />

  <polygon id="кабинет" 
        class="кабинеты" 
        points="1230,300 1230,340 1300,340 1300,300" 
        fill=" #E0E0E0" stroke="black" stroke-width="1" />
  <text x="1265" y="320" font-family="'Roboto', sans-serif"
  fill="black" font-size="18" text-anchor="middle" 
  alignment-baseline="middle">415</text>

  <polygon id="кабинет" 
        class="кабинеты" 
        points="1230,340 1230,420 1300,420 1300,340" 
        fill=" #E0E0E0" stroke="black" stroke-width="1" />
  <text x="1265" y="380" font-family="'Roboto', sans-serif"
  fill="black" font-size="18" text-anchor="middle" 
  alignment-baseline="middle">413</text>

  <polygon id="кабинет" 
        class="кабинеты" 
        points="1230,420 1230,460 1300,460 1300,420" 
        fill=" #E0E0E0" stroke="black" stroke-width="1" />
  <text x="1265" y="440" font-family="'Roboto', sans-serif"
  fill="black" font-size="18" text-anchor="middle" 
  alignment-baseline="middle">411</text>

  <polygon id="кабинет" 
        class="кабинеты" 
        points="1230,460 1230,500 1300,500 1300,460" 
        fill=" #E0E0E0" stroke="black" stroke-width="1" />
  <text x="1265" y="480" font-family="'Roboto', sans-serif"
  fill="black" font-size="18" text-anchor="middle" 
  alignment-baseline="middle">409</text>

  <polygon id="кабинет" 
        class="кабинеты" 
        points="1230,500 1230,540 1300,540 1300,500" 
        fill=" #E0E0E0" stroke="black" stroke-width="1" />
  <text x="1265" y="520" font-family="'Roboto', sans-serif"
  fill="black" font-size="18" text-anchor="middle" 
  alignment-baseline="middle">407</text>

  <polygon id="кабинет" 
        class="кабинеты" 
        points="1230,540 1230,580 1300,580 1300,540" 
        fill=" #E0E0E0" stroke="black" stroke-width="1" />
  <text x="1265" y="560" font-family="'Roboto', sans-serif"
  fill="black" font-size="18" text-anchor="middle" 
  alignment-baseline="middle">405</text>

  <polygon id="лесница" 
        class="лесницыы" 
        points="1080,300 1080,230 1160,230 1160,300" 
        fill="rgb(82, 87, 126)" stroke="black" stroke-width="1" />
  <image href="лесница.svg" x="1100" y="250" width="30" height="30" />

  <polygon id="кабинет" 
        class="кабинеты" 
        points="1130,170 1130,230 1190,230 1190,170" 
        fill=" #E0E0E0" stroke="black" stroke-width="1" />
  <text x="1160" y="200" font-family="'Roboto', sans-serif"
  fill="black" font-size="18" text-anchor="middle" 
  alignment-baseline="middle">417</text>

  <polygon id="лесница" 
        class="лесницыы" 
        points="1230,620 1230,580 1300,580 1300,620" 
        fill="rgb(82, 87, 126)" stroke="black" stroke-width="1" />
  <image href="лесница.svg" x="1250" y="585" width="30" height="30" />

  <polygon id="кабинет" 
        class="кабинеты" 
        points="1230,620 1230,660 1300,660 1300,620" 
        fill=" #E0E0E0" stroke="black" stroke-width="1" />
  <text x="1265" y="640" font-family="'Roboto', sans-serif"
  fill="black" font-size="18" text-anchor="middle" 
  alignment-baseline="middle">403</text>

  <polygon id="кабинет" 
        class="кабинеты" 
        points="1230,660 1230,830 1300,830 1300,660" 
        fill=" #E0E0E0" stroke="black" stroke-width="1" />
  <text x="1265" y="750" font-family="'Roboto', sans-serif"
  fill="black" font-size="18" text-anchor="middle" 
  alignment-baseline="middle">401</text>

  <polygon id="кабинет" 
        class="кабинеты" 
        points="1130,770 1130,830 1200,830 1200,770" 
        fill=" #E0E0E0" stroke="black" stroke-width="1" />
  <text x="1165" y="800" font-family="'Roboto', sans-serif"
  fill="black" font-size="18" text-anchor="middle" 
  alignment-baseline="middle">404</text>

  <polygon id="кабинет" 
        class="кабинеты" 
        points="1130,730 1130,770 1200,770 1200,730" 
        fill=" #E0E0E0" stroke="black" stroke-width="1" />
  <text x="1165" y="750" font-family="'Roboto', sans-serif"
  fill="black" font-size="18" text-anchor="middle" 
  alignment-baseline="middle">402</text>

  <polygon id="кабинет" 
        class="кабинеты" 
        points="1130,660 1130,730 1200,730 1200,660" 
        fill=" #E0E0E0" stroke="black" stroke-width="1" />
  <text x="1165" y="695" font-family="'Roboto', sans-serif"
  fill="black" font-size="18" text-anchor="middle" 
  alignment-baseline="middle">405</text>

  <polygon id="кабинет" 
        class="кабинеты" 
        points="1130,620 1130,660 1200,660 1200,620" 
        fill=" #E0E0E0" stroke="black" stroke-width="1" />
  <text x="1165" y="640" font-family="'Roboto', sans-serif"
  fill="black" font-size="18" text-anchor="middle" 
  alignment-baseline="middle">408</text>

  <polygon id="кабинет" 
        class="кабинеты" 
        points="1130,580 1130,620 1200,620 1200,580" 
        fill=" #E0E0E0" stroke="black" stroke-width="1" />
  <text x="1165" y="600" font-family="'Roboto', sans-serif"
  fill="black" font-size="18" text-anchor="middle" 
  alignment-baseline="middle">410</text>

  <polygon id="кабинет" 
        class="кабинеты" 
        points="1130,540 1130,580 1200,580 1200,540" 
        fill=" #E0E0E0" stroke="black" stroke-width="1" />
  <text x="1165" y="560" font-family="'Roboto', sans-serif"
  fill="black" font-size="18" text-anchor="middle" 
  alignment-baseline="middle">412</text>

  <polygon id="кабинет" 
        class="кабинеты" 
        points="1130,500 1130,540 1200,540 1200,500" 
        fill=" #E0E0E0" stroke="black" stroke-width="1" />
  <text x="1165" y="520" font-family="'Roboto', sans-serif"
  fill="black" font-size="18" text-anchor="middle" 
  alignment-baseline="middle">416</text>

  <polygon id="кабинет" 
        class="кабинеты" 
        points="1130,420 1130,500 1200,500 1200,420" 
        fill=" #E0E0E0" stroke="black" stroke-width="1" />
  <text x="1165" y="460" font-family="'Roboto', sans-serif"
  fill="black" font-size="18" text-anchor="middle" 
  alignment-baseline="middle">414</text>

  <polygon id="кабинет" 
        class="кабинеты" 
        points="1130,380 1130,420 1200,420 1200,380" 
        fill=" #E0E0E0" stroke="black" stroke-width="1" />
  <text x="1165" y="400" font-family="'Roboto', sans-serif"
  fill="black" font-size="18" text-anchor="middle" 
  alignment-baseline="middle">418</text>

  <polygon id="мужскойтуалет" 
        class="мужские туалеты" 
        points="1130,340 1130,380 1200,380 1200,340" 
        fill="rgb(82, 87, 126)" stroke="black" stroke-width="1" />
  <image href="туалет мужской.svg" x="1150" y="345" width="30" height="30" />

  <polygon id="кабинет" 
        class="кабинеты" 
        points="1130,300 1130,340 1200,340 1200,300" 
        fill=" #E0E0E0" stroke="black" stroke-width="1" />
  <text x="1165" y="320" font-family="'Roboto', sans-serif"
  fill="black" font-size="18" text-anchor="middle" 
  alignment-baseline="middle">420</text>

  <polygon id="лесница" 
        class="лесницыы" 
        points="580,300 580,230 660,230 660,300" 
        fill="rgb(82, 87, 126)" stroke="black" stroke-width="1" />
  <image href="лесница.svg" x="610" y="250" width="30" height="30" />

  <polygon id="лесница" 
        class="лесницыы" 
        points="450,600 450,560 520,560 520,600" 
        fill="rgb(82, 87, 126)" stroke="black" stroke-width="1" />
  <image href="лесница.svg" x="470" y="565" width="30" height="30" />

  <polygon id="кабинет" 
        class="кабинеты" 
        points="450,340 450,300 520,300 520,340" 
        fill=" #E0E0E0" stroke="black" stroke-width="1" />
  <text x="485" y="320" font-family="'Roboto', sans-serif"
  fill="black" font-size="18" text-anchor="middle" 
  alignment-baseline="middle">421</text>

  <polygon id="кабинет" 
        class="кабинеты" 
        points="450,380 450,340 520,340 520,380" 
        fill=" #E0E0E0" stroke="black" stroke-width="1" />
  <text x="485" y="360" font-family="'Roboto', sans-serif"
  fill="black" font-size="18" text-anchor="middle" 
  alignment-baseline="middle">423</text>

  <polygon id="кабинет" 
        class="кабинеты" 
        points="450,460 450,380 520,380 520,460" 
        fill=" #E0E0E0" stroke="black" stroke-width="1" />
  <text x="485" y="420" font-family="'Roboto', sans-serif"
  fill="black" font-size="18" text-anchor="middle" 
  alignment-baseline="middle">425</text>

  <polygon id="кабинет" 
        class="кабинеты" 
        points="450,560 450,460 520,460 520,560" 
        fill=" #E0E0E0" stroke="black" stroke-width="1" />
  <text x="485" y="510" font-family="'Roboto', sans-serif"
  fill="black" font-size="18" text-anchor="middle" 
  alignment-baseline="middle">427</text>

  <polygon id="кабинет" 
        class="кабинеты" 
        points="450,640 450,600 520,600 520,640" 
        fill=" #E0E0E0" stroke="black" stroke-width="1" />
  <text x="485" y="620" font-family="'Roboto', sans-serif"
  fill="black" font-size="18" text-anchor="middle" 
  alignment-baseline="middle">431</text>

  <polygon id="кабинет" 
        class="кабинеты" 
        points="450,680 450,640 520,640 520,680" 
        fill=" #E0E0E0" stroke="black" stroke-width="1" />
  <text x="485" y="660" font-family="'Roboto', sans-serif"
  fill="black" font-size="18" text-anchor="middle" 
  alignment-baseline="middle">429</text>

  <polygon id="кабинет" 
        class="кабинеты" 
        points="450,730 450,680 520,680 520,730" 
        fill=" #E0E0E0" stroke="black" stroke-width="1" />
  <text x="485" y="705" font-family="'Roboto', sans-serif"
  fill="black" font-size="18" text-anchor="middle" 
  alignment-baseline="middle">435</text>

  <polygon id="кабинет" 
        class="кабинеты" 
        points="450,780 450,730 520,730 520,780" 
        fill=" #E0E0E0" stroke="black" stroke-width="1" />
  <text x="485" y="755" font-family="'Roboto', sans-serif"
  fill="black" font-size="18" text-anchor="middle" 
  alignment-baseline="middle">433</text>

  <polygon id="кабинет" 
        class="кабинеты" 
        points="550,340 550,300 620,300 620,340" 
        fill=" #E0E0E0" stroke="black" stroke-width="1" />
  <text x="570" y="315" font-family="'Roboto', sans-serif"
  fill="black" font-size="16" text-anchor="middle" 
  alignment-baseline="middle">426</text>
  <text x="600" y="315" font-family="'Roboto', sans-serif"
  fill="black" font-size="16" text-anchor="middle" 
  alignment-baseline="middle">427</text>
  <text x="585" y="330" font-family="'Roboto', sans-serif"
  fill="black" font-size="16" text-anchor="middle" 
  alignment-baseline="middle">428</text>

  <polygon id="кабинет" 
        class="кабинеты" 
        points="550,380 550,340 620,340 620,380" 
        fill=" #E0E0E0" stroke="black" stroke-width="1" />
  <text x="585" y="360" font-family="'Roboto', sans-serif"
  fill="black" font-size="18" text-anchor="middle" 
  alignment-baseline="middle">430</text>

  <polygon id="кабинет" 
        class="кабинеты" 
        points="550,460 550,380 620,380 620,460" 
        fill=" #E0E0E0" stroke="black" stroke-width="1" />
  <text x="585" y="420" font-family="'Roboto', sans-serif"
  fill="black" font-size="18" text-anchor="middle" 
  alignment-baseline="middle">432</text>

  <polygon id="кабинет" 
        class="кабинеты" 
        points="550,520 550,460 620,460 620,520" 
        fill=" #E0E0E0" stroke="black" stroke-width="1" />
  <text x="585" y="490" font-family="'Roboto', sans-serif"
  fill="black" font-size="18" text-anchor="middle" 
  alignment-baseline="middle">434</text>

  <polygon id="кабинет" 
        class="кабинеты" 
        points="550,560 550,520 620,520 620,560" 
        fill=" #E0E0E0" stroke="black" stroke-width="1" />
  <text x="585" y="540" font-family="'Roboto', sans-serif"
  fill="black" font-size="18" text-anchor="middle" 
  alignment-baseline="middle">436</text>

  <polygon id="кабинет" 
        class="кабинеты" 
        points="550,610 550,560 620,560 620,610" 
        fill=" #E0E0E0" stroke="black" stroke-width="1" />
  <text x="585" y="585" font-family="'Roboto', sans-serif"
  fill="black" font-size="18" text-anchor="middle" 
  alignment-baseline="middle">440</text>

  <polygon id="кабинет" 
        class="кабинеты" 
        points="550,660 550,610 620,610 620,660" 
        fill=" #E0E0E0" stroke="black" stroke-width="1" />
  <text x="585" y="635" font-family="'Roboto', sans-serif"
  fill="black" font-size="18" text-anchor="middle" 
  alignment-baseline="middle">438</text>

  <polygon id="кабинет" 
        class="кабинеты" 
        points="550,710 550,660 620,660 620,710" 
        fill=" #E0E0E0" stroke="black" stroke-width="1" />

  <polygon id="кабинет" 
        class="кабинеты" 
        points="550,760 550,710 620,710 620,760" 
        fill=" #E0E0E0" stroke="black" stroke-width="1" />
  <text x="585" y="735" font-family="'Roboto', sans-serif"
  fill="black" font-size="18" text-anchor="middle" 
  alignment-baseline="middle">448</text>

  <polygon id="кабинет" 
        class="кабинеты" 
        points="550,810 550,760 620,760 620,810" 
        fill=" #E0E0E0" stroke="black" stroke-width="1" />
  <text x="585" y="785" font-family="'Roboto', sans-serif"
  fill="black" font-size="18" text-anchor="middle" 
  alignment-baseline="middle">446</text>

  <polygon
        points="100,100 300,100 300,120 1380,120 1380,100 
        1580,100 1580,300 1300,300 1300,830 1130,830 1130,300 
        1080,300 660,300 620,300 620,830 
        450,830 450,300 100,300" 
        fill="none" stroke="black" stroke-width="2" />
</svg>