<svg width="100%" height="100%" xmlns="http://www.w3.org/2000/svg">
  <!-- Фон карты -->
  <rect width="100%" height="100%" fill="#f0f0f0" />

    <polygon
        points="500,120 500,300 520,300 520,830 550,830 
        550,300 590,300 590,230 1160,230 1160,300 1200,300 
        1200,830 1230,830 1230,300 1300,300 1300,230 1380,230 
        1380,200 580,200 580,120" 
        fill="#f9f9ff" stroke="#6633FF" stroke-width="1" />
  <text x="540" y="215" font-family="'Roboto', sans-serif"
  fill="black" font-size="18" text-anchor="middle" 
  alignment-baseline="middle">Коридор</text>

  <polygon id="кабинет" 
        class="кабинеты" 
        points="100,100 100,300 300,300 300,100" 
        fill=" #E0E0E0" stroke="black" stroke-width="1" />

  <polygon id="кабинет" 
        class="кабинеты" 
        points="300,120 300,300 500,300 500,120" 
        fill=" #E0E0E0" stroke="black" stroke-width="1" />
  <text x="400" y="210" font-family="'Roboto', sans-serif"
  fill="black" font-size="18" text-anchor="middle" 
  alignment-baseline="middle">341</text>

  <polygon  
        points="500,130 500,150" 
        fill="#999999" stroke="#f9f9ff" stroke-width="4" />

  <polygon  
        points="500,270 500,290" 
        fill="#999999" stroke="#f9f9ff" stroke-width="4" />
  
  <polygon id="кабинет" 
        class="кабинеты" 
        points="580,120 580,200 620,200 620,120" 
        fill=" #E0E0E0" stroke="black" stroke-width="1" />
  <text x="600" y="160" font-family="'Roboto', sans-serif"
  fill="black" font-size="18" text-anchor="middle" 
  alignment-baseline="middle">339</text>

  <polygon  
        points="590,200 610,200" 
        fill="#999999" stroke="#f9f9ff" stroke-width="4" />

  <polygon id="кабинет" 
        class="кабинеты" 
        points="620,120 620,200 670,200 670,120" 
        fill=" #E0E0E0" stroke="black" stroke-width="1" />
  <text x="645" y="160" font-family="'Roboto', sans-serif"
  fill="black" font-size="18" text-anchor="middle" 
  alignment-baseline="middle">337</text>

  <polygon  
        points="635,200 655,200" 
        fill="#999999" stroke="#f9f9ff" stroke-width="4" />

  <polygon id="кабинет" 
        class="кабинеты" 
        points="670,120 670,200 740,200 740,120" 
        fill=" #E0E0E0" stroke="black" stroke-width="1" />
  <text x="700" y="160" font-family="'Roboto', sans-serif"
  fill="black" font-size="18" text-anchor="middle" 
  alignment-baseline="middle">335</text>

  <polygon  
        points="700,200 720,200" 
        fill="#999999" stroke="#f9f9ff" stroke-width="4" />

  <polygon id="кабинет" 
        class="кабинеты" 
        points="740,120 740,200 790,200 790,120" 
        fill=" #E0E0E0" stroke="black" stroke-width="1" />
  <text x="765" y="160" font-family="'Roboto', sans-serif"
  fill="black" font-size="18" text-anchor="middle" 
  alignment-baseline="middle">333</text>

  <polygon  
        points="750,200 770,200" 
        fill="#999999" stroke="#f9f9ff" stroke-width="4" />

  <polygon id="кабинет" 
        class="кабинеты" 
        points="790,120 790,170 830,170 830,120" 
        fill=" #E0E0E0" stroke="black" stroke-width="1" />

  <polygon id="кабинет" 
        class="кабинеты" 
        points="790,170 790,200 830,200 830,170" 
        fill=" #E0E0E0" stroke="black" stroke-width="1" />

  <polygon id="кабинет" 
        class="кабинеты" 
        points="830,120 830,200 890,200 890,120" 
        fill=" #E0E0E0" stroke="black" stroke-width="1" />
  <text x="850" y="150" font-family="'Roboto', sans-serif"
  fill="black" font-size="18" text-anchor="middle" 
  alignment-baseline="middle">6</text>

  <polygon  
        points="830,190 830,180" 
        fill="#999999" stroke="#f9f9ff" stroke-width="4" />  

  <polygon  
        points="830,160 830,150" 
        fill="#999999" stroke="#f9f9ff" stroke-width="4" />  

  <polygon  
        points="850,200 870,200" 
        fill="#999999" stroke="#f9f9ff" stroke-width="4" />

  <polygon id="кабинет" 
        class="кабинеты" 
        points="890,120 890,200 930,200 930,120" 
        fill=" #E0E0E0" stroke="black" stroke-width="1" />
  <text x="910" y="150" font-family="'Roboto', sans-serif"
  fill="black" font-size="18" text-anchor="middle" 
  alignment-baseline="middle">7</text>

  <polygon id="кабинет" 
        class="кабинеты" 
        points="930,120 930,200 970,200 970,120" 
        fill=" #E0E0E0" stroke="black" stroke-width="1" />
  <text x="950" y="160" font-family="'Roboto', sans-serif"
  fill="black" font-size="18" text-anchor="middle" 
  alignment-baseline="middle">327</text>

  <polygon  
        points="930,190 930,170" 
        fill="#999999" stroke="#f9f9ff" stroke-width="4" />

  <polygon  
        points="940,200 960,200" 
        fill="#999999" stroke="#f9f9ff" stroke-width="4" />

  <polygon id="кабинет" 
        class="кабинеты" 
        points="970,120 970,200 1020,200 1020,120" 
        fill=" #E0E0E0" stroke="black" stroke-width="1" />
  <text x="995" y="160" font-family="'Roboto', sans-serif"
  fill="black" font-size="18" text-anchor="middle" 
  alignment-baseline="middle">325</text>

  <polygon id="кабинет" 
        class="кабинеты" 
        points="1020,120 1020,200 1060,200 1060,120" 
        fill=" #E0E0E0" stroke="black" stroke-width="1" />
  <text x="1040" y="160" font-family="'Roboto', sans-serif"
  fill="black" font-size="18" text-anchor="middle" 
  alignment-baseline="middle">323</text>

  <polygon  
        points="1020,150 1020,170" 
        fill="#999999" stroke="#f9f9ff" stroke-width="4" />

  <polygon  
        points="1030,200 1050,200" 
        fill="#999999" stroke="#f9f9ff" stroke-width="4" />

  <polygon id="кабинет" 
        class="кабинеты" 
        points="1060,120 1060,200 1110,200 1110,120" 
        fill=" #E0E0E0" stroke="black" stroke-width="1" />
  <text x="1085" y="160" font-family="'Roboto', sans-serif"
  fill="black" font-size="18" text-anchor="middle" 
  alignment-baseline="middle">321</text>

  <polygon  
        points="1075,200 1095,200" 
        fill="#999999" stroke="#f9f9ff" stroke-width="4" />

  <polygon id="кабинет" 
        class="кабинеты" 
        points="1110,120 1110,200 1150,200 1150,120" 
        fill=" #E0E0E0" stroke="black" stroke-width="1" />
  <text x="1130" y="160" font-family="'Roboto', sans-serif"
  fill="black" font-size="18" text-anchor="middle" 
  alignment-baseline="middle">319</text>

  <polygon  
        points="1120,200 1140,200" 
        fill="#999999" stroke="#f9f9ff" stroke-width="4" />

  <polygon id="кабинет" 
        class="кабинеты" 
        points="1150,120 1150,200 1190,200 1190,120" 
        fill=" #E0E0E0" stroke="black" stroke-width="1" />
  <text x="1170" y="160" font-family="'Roboto', sans-serif"
  fill="black" font-size="18" text-anchor="middle" 
  alignment-baseline="middle">315</text>

  <polygon  
        points="1160,200 1180,200" 
        fill="#999999" stroke="#f9f9ff" stroke-width="4" />

  <polygon id="кабинет" 
        class="кабинеты" 
        points="1190,120 1190,200 1230,200 1230,120" 
        fill=" #E0E0E0" stroke="black" stroke-width="1" />
  <text x="1210" y="160" font-family="'Roboto', sans-serif"
  fill="black" font-size="18" text-anchor="middle" 
  alignment-baseline="middle">317</text>

  <polygon  
        points="1200,200 1220,200" 
        fill="#999999" stroke="#f9f9ff" stroke-width="4" />

  <polygon id="кабинет" 
        class="кабинеты" 
        points="1230,120 1230,300 1380,300 1380,120" 
        fill=" #E0E0E0" stroke="black" stroke-width="1" />
  <text x="1300" y="210" font-family="'Roboto', sans-serif"
  fill="black" font-size="18" text-anchor="middle" 
  alignment-baseline="middle">313</text>

  <polygon  
        points="1230,210 1230,225" 
        fill="#999999" stroke="#f9f9ff" stroke-width="4" />

  <polygon  
        points="1230,275 1230,290" 
        fill="#999999" stroke="#f9f9ff" stroke-width="4" />

  <polygon id="кабинет" 
        class="кабинеты" 
        points="1380,100 1380,300 1580,300 1580,100" 
        fill=" #E0E0E0" stroke="black" stroke-width="1" />

  <polygon id="лесница" 
        class="лесницыы" 
        points="1080,300 1080,230 1160,230 1160,300" 
        fill="rgb(82, 87, 126)" stroke="black" stroke-width="1" />
  <image href="лесница.svg" x="1100" y="250" width="30" height="30" />

  <polygon id="кабинет" 
        class="кабинеты" 
        points="1230,350 1230,300 1300,300 1300,350" 
        fill=" #E0E0E0" stroke="black" stroke-width="1" />
  <text x="1265" y="330" font-family="'Roboto', sans-serif"
  fill="black" font-size="18" text-anchor="middle" 
  alignment-baseline="middle">311</text>

  <polygon  
        points="1230,315 1230,335" 
        fill="#999999" stroke="#f9f9ff" stroke-width="4" />

  <polygon id="кабинет" 
        class="кабинеты" 
        points="1230,500 1230,350 1300,350 1300,500" 
        fill=" #E0E0E0" stroke="black" stroke-width="1" />
  <text x="1265" y="425" font-family="'Roboto', sans-serif"
  fill="black" font-size="18" text-anchor="middle" 
  alignment-baseline="middle">309</text>

  <polygon  
        points="1230,420 1230,440" 
        fill="#999999" stroke="#f9f9ff" stroke-width="4" />

  <polygon id="кабинет" 
        class="кабинеты" 
        points="1230,580 1230,500 1300,500 1300,580" 
        fill=" #E0E0E0" stroke="black" stroke-width="1" />
  <text x="1265" y="540" font-family="'Roboto', sans-serif"
  fill="black" font-size="18" text-anchor="middle" 
  alignment-baseline="middle">307</text>

  <polygon  
        points="1230,520 1230,540" 
        fill="#999999" stroke="#f9f9ff" stroke-width="4" />

  <polygon id="лесница" 
        class="лесницыы" 
        points="1230,620 1230,580 1300,580 1300,620" 
        fill="rgb(82, 87, 126)" stroke="black" stroke-width="1" />
  <image href="лесница.svg" x="1250" y="585" width="30" height="30" />

  <polygon id="кабинет" 
        class="кабинеты" 
        points="1230,660 1230,620 1300,620 1300,660" 
        fill=" #E0E0E0" stroke="black" stroke-width="1" />
  <text x="1265" y="640" font-family="'Roboto', sans-serif"
  fill="black" font-size="18" text-anchor="middle" 
  alignment-baseline="middle">305</text>

  <polygon  
        points="1230,630 1230,650" 
        fill="#999999" stroke="#f9f9ff" stroke-width="4" />

  <polygon id="кабинет" 
        class="кабинеты" 
        points="1230,740 1230,660 1300,660 1300,740" 
        fill=" #E0E0E0" stroke="black" stroke-width="1" />
  <text x="1265" y="700" font-family="'Roboto', sans-serif"
  fill="black" font-size="18" text-anchor="middle" 
  alignment-baseline="middle">303</text>

  <polygon  
        points="1230,700 1230,720" 
        fill="#999999" stroke="#f9f9ff" stroke-width="4" />

  <polygon id="кабинет" 
        class="кабинеты" 
        points="1230,830 1230,740 1300,740 1300,830" 
        fill=" #E0E0E0" stroke="black" stroke-width="1" />
  <text x="1265" y="790" font-family="'Roboto', sans-serif"
  fill="black" font-size="18" text-anchor="middle" 
  alignment-baseline="middle">301</text>

  <polygon  
        points="1230,790 1230,810" 
        fill="#999999" stroke="#f9f9ff" stroke-width="4" />

  <polygon id="кабинет" 
        class="кабинеты" 
        points="1130,830 1130,810 1200,810 1200,830" 
        fill=" #E0E0E0" stroke="black" stroke-width="1" />

  <polygon id="кабинет" 
        class="кабинеты" 
        points="1130,810 1130,730 1200,730 1200,810" 
        fill=" #E0E0E0" stroke="black" stroke-width="1" />
  <text x="1165" y="770" font-family="'Roboto', sans-serif"
  fill="black" font-size="18" text-anchor="middle" 
  alignment-baseline="middle">302</text>

  <polygon  
        points="1155,810 1175,810" 
        fill="#999999" stroke="#f9f9ff" stroke-width="4" />

  <polygon  
        points="1200,740 1200,760" 
        fill="#999999" stroke="#f9f9ff" stroke-width="4" />

    <polygon id="кабинет" 
        class="кабинеты" 
        points="1130,730 1130,680 1200,680 1200,730" 
        fill=" #E0E0E0" stroke="black" stroke-width="1" />
  <text x="1165" y="705" font-family="'Roboto', sans-serif"
  fill="black" font-size="18" text-anchor="middle" 
  alignment-baseline="middle">304</text>

  <polygon  
        points="1200,690 1200,710" 
        fill="#999999" stroke="#f9f9ff" stroke-width="4" />

  <polygon id="кабинет" 
        class="кабинеты" 
        points="1130,680 1130,630 1200,630 1200,680" 
        fill=" #E0E0E0" stroke="black" stroke-width="1" />
  <text x="1165" y="655" font-family="'Roboto', sans-serif"
  fill="black" font-size="18" text-anchor="middle" 
  alignment-baseline="middle">306</text>

  <polygon  
        points="1200,645 1200,665" 
        fill="#999999" stroke="#f9f9ff" stroke-width="4" />

  <polygon id="кабинет" 
        class="кабинеты" 
        points="1130,630 1130,590 1200,590 1200,630" 
        fill=" #E0E0E0" stroke="black" stroke-width="1" />
  <text x="1165" y="610" font-family="'Roboto', sans-serif"
  fill="black" font-size="18" text-anchor="middle" 
  alignment-baseline="middle">308</text>

  <polygon  
        points="1200,600 1200,620" 
        fill="#999999" stroke="#f9f9ff" stroke-width="4" />

  <polygon id="кабинет" 
        class="кабинеты" 
        points="1130,590 1130,540 1200,540 1200,590" 
        fill=" #E0E0E0" stroke="black" stroke-width="1" />
  <text x="1165" y="565" font-family="'Roboto', sans-serif"
  fill="black" font-size="18" text-anchor="middle" 
  alignment-baseline="middle">310</text>

  <polygon  
        points="1200,555 1200,575" 
        fill="#999999" stroke="#f9f9ff" stroke-width="4" />

  <polygon id="кабинет" 
        class="кабинеты" 
        points="1130,540 1130,500 1200,500 1200,540" 
        fill=" #E0E0E0" stroke="black" stroke-width="1" />
  <text x="1165" y="520" font-family="'Roboto', sans-serif"
  fill="black" font-size="18" text-anchor="middle" 
  alignment-baseline="middle">312</text>

  <polygon  
        points="1200,510 1200,530" 
        fill="#999999" stroke="#f9f9ff" stroke-width="4" />

  <polygon id="кабинет" 
        class="кабинеты" 
        points="1130,500 1130,420 1200,420 1200,500" 
        fill=" #E0E0E0" stroke="black" stroke-width="1" />
  <text x="1165" y="460" font-family="'Roboto', sans-serif"
  fill="black" font-size="18" text-anchor="middle" 
  alignment-baseline="middle">314</text>

  <polygon  
        points="1200,430 1200,450" 
        fill="#999999" stroke="#f9f9ff" stroke-width="4" />

  <polygon id="кабинет" 
        class="кабинеты" 
        points="1130,420 1130,380 1200,380 1200,420" 
        fill=" #E0E0E0" stroke="black" stroke-width="1" />
  <text x="1165" y="400" font-family="'Roboto', sans-serif"
  fill="black" font-size="18" text-anchor="middle" 
  alignment-baseline="middle">316</text>

  <polygon  
        points="1200,390 1200,410" 
        fill="#999999" stroke="#f9f9ff" stroke-width="4" />

  <polygon id="туалет" 
        class="туалетженский" 
        points="1130,380 1130,340 1200,340 1200,380" 
        fill="rgb(82, 87, 126)" stroke="black" stroke-width="1" />
  <image href="женский туалет.svg" x="1150" y="345" width="30" height="30" />

  <polygon id="кабинет" 
        class="кабинеты" 
        points="1130,340 1130,300 1200,300 1200,340" 
        fill=" #E0E0E0" stroke="black" stroke-width="1" />
  <text x="1165" y="320" font-family="'Roboto', sans-serif"
  fill="black" font-size="18" text-anchor="middle" 
  alignment-baseline="middle">318</text>

  <polygon  
        points="1200,310 1200,330" 
        fill="#999999" stroke="#f9f9ff" stroke-width="4" />

  <polygon id="лесница" 
        class="лесницыы" 
        points="580,300 580,230 660,230 660,300" 
        fill="rgb(82, 87, 126)" stroke="black" stroke-width="1" />
  <image href="лесница.svg" x="610" y="250" width="30" height="30" />

  <polygon id="кабинет" 
        class="кабинеты" 
        points="550,340 550,300 620,300 620,340" 
        fill=" #E0E0E0" stroke="black" stroke-width="1" />
  <text x="585" y="320" font-family="'Roboto', sans-serif"
  fill="black" font-size="18" text-anchor="middle" 
  alignment-baseline="middle">336</text>

  <polygon  
        points="550,310 550,330" 
        fill="#999999" stroke="#f9f9ff" stroke-width="4" />

  <polygon id="туалет" 
        class="туалетмужской" 
        points="550,380 550,340 620,340 620,380" 
        fill="rgb(82, 87, 126)" stroke="black" stroke-width="1" />
  <image href="туалет мужской.svg" x="570" y="345" width="30" height="30" />

  <polygon id="кабинет" 
        class="кабинеты" 
        points="550,480 550,380 620,380 620,480" 
        fill=" #E0E0E0" stroke="black" stroke-width="1" />
  <text x="585" y="430" font-family="'Roboto', sans-serif"
  fill="black" font-size="18" text-anchor="middle" 
  alignment-baseline="middle">338</text>

  <polygon  
        points="550,390 550,410" 
        fill="#999999" stroke="#f9f9ff" stroke-width="4" />

  <polygon id="кабинет" 
        class="кабинеты" 
        points="550,600 550,480 620,480 620,600" 
        fill=" #E0E0E0" stroke="black" stroke-width="1" />
  <text x="585" y="540" font-family="'Roboto', sans-serif"
  fill="black" font-size="18" text-anchor="middle" 
  alignment-baseline="middle">340</text>

  <polygon  
        points="550,570 550,590" 
        fill="#999999" stroke="#f9f9ff" stroke-width="4" />

  <polygon id="кабинет" 
        class="кабинеты" 
        points="550,640 550,600 620,600 620,640" 
        fill=" #E0E0E0" stroke="black" stroke-width="1" />
  <text x="585" y="620" font-family="'Roboto', sans-serif"
  fill="black" font-size="18" text-anchor="middle" 
  alignment-baseline="middle">342</text>

  <polygon  
        points="550,610 550,630" 
        fill="#999999" stroke="#f9f9ff" stroke-width="4" />

  <polygon id="кабинет" 
        class="кабинеты" 
        points="550,720 550,640 620,640 620,720" 
        fill=" #E0E0E0" stroke="black" stroke-width="1" />
  <text x="585" y="680" font-family="'Roboto', sans-serif"
  fill="black" font-size="18" text-anchor="middle" 
  alignment-baseline="middle">344</text>

  <polygon  
        points="550,690 550,710" 
        fill="#999999" stroke="#f9f9ff" stroke-width="4" />

  <polygon id="кабинет" 
        class="кабинеты" 
        points="550,770 550,720 620,720 620,770" 
        fill=" #E0E0E0" stroke="black" stroke-width="1" />
  <text x="585" y="750" font-family="'Roboto', sans-serif"
  fill="black" font-size="18" text-anchor="middle" 
  alignment-baseline="middle">346</text>

  <polygon  
        points="550,735 550,755" 
        fill="#999999" stroke="#f9f9ff" stroke-width="4" />

  <polygon id="кабинет" 
        class="кабинеты" 
        points="550,830 550,770 620,770 620,830" 
        fill=" #E0E0E0" stroke="black" stroke-width="1" />
  <text x="585" y="800" font-family="'Roboto', sans-serif"
  fill="black" font-size="18" text-anchor="middle" 
  alignment-baseline="middle">348</text>

  <polygon  
        points="550,800 550,820" 
        fill="#999999" stroke="#f9f9ff" stroke-width="4" />

  <polygon id="кабинет" 
        class="кабинеты" 
        points="450,830 450,755 520,755 520,830" 
        fill=" #E0E0E0" stroke="black" stroke-width="1" />
  <text x="480" y="795" font-family="'Roboto', sans-serif"
  fill="black" font-size="18" text-anchor="middle" 
  alignment-baseline="middle">352</text>

  <polygon  
        points="520,790 520,810" 
        fill="#999999" stroke="#f9f9ff" stroke-width="4" />

  <polygon id="кабинет" 
        class="кабинеты" 
        points="450,755 450,680 520,680 520,755" 
        fill=" #E0E0E0" stroke="black" stroke-width="1" />
  <text x="480" y="720" font-family="'Roboto', sans-serif"
  fill="black" font-size="18" text-anchor="middle" 
  alignment-baseline="middle">353</text>

  <polygon  
        points="520,700 520,720" 
        fill="#999999" stroke="#f9f9ff" stroke-width="4" />

  <polygon id="кабинет" 
        class="кабинеты" 
        points="450,680 450,640 520,640 520,680" 
        fill=" #E0E0E0" stroke="black" stroke-width="1" />
  <text x="480" y="660" font-family="'Roboto', sans-serif"
  fill="black" font-size="18" text-anchor="middle" 
  alignment-baseline="middle">351</text>

  <polygon  
        points="520,650 520,670" 
        fill="#999999" stroke="#f9f9ff" stroke-width="4" />

  <polygon id="лесница" 
        class="лесницыы" 
        points="450,640 450,600 520,600 520,640" 
        fill="rgb(82, 87, 126)" stroke="black" stroke-width="1" />
  <image href="лесница.svg" x="470" y="605" width="30" height="30" />

  <polygon id="кабинет" 
        class="кабинеты" 
        points="450,520 450,600 520,600 520,520" 
        fill=" #E0E0E0" stroke="black" stroke-width="1" />
  <text x="480" y="560" font-family="'Roboto', sans-serif"
  fill="black" font-size="18" text-anchor="middle" 
  alignment-baseline="middle">349</text>

  <polygon  
        points="520,560 520,580" 
        fill="#999999" stroke="#f9f9ff" stroke-width="4" />

  <polygon id="кабинет" 
        class="кабинеты" 
        points="450,470 450,520 520,520 520,470" 
        fill=" #E0E0E0" stroke="black" stroke-width="1" />
  <text x="480" y="495" font-family="'Roboto', sans-serif"
  fill="black" font-size="18" text-anchor="middle" 
  alignment-baseline="middle">347</text>

  <polygon  
        points="520,485 520,505" 
        fill="#999999" stroke="#f9f9ff" stroke-width="4" />

  <polygon id="кабинет" 
        class="кабинеты" 
        points="450,420 450,470 520,470 520,420" 
        fill=" #E0E0E0" stroke="black" stroke-width="1" />
  <text x="480" y="445" font-family="'Roboto', sans-serif"
  fill="black" font-size="18" text-anchor="middle" 
  alignment-baseline="middle">345</text>

  <polygon  
        points="520,435 520,455" 
        fill="#999999" stroke="#f9f9ff" stroke-width="4" />

  <polygon id="кабинет" 
        class="кабинеты" 
        points="450,380 450,420 520,420 520,380" 
        fill=" #E0E0E0" stroke="black" stroke-width="1" />

  <polygon  
        points="520,390 520,410" 
        fill="#999999" stroke="#f9f9ff" stroke-width="4" />

  <polygon id="кабинет" 
        class="кабинеты" 
        points="450,300 450,380 520,380 520,300" 
        fill=" #E0E0E0" stroke="black" stroke-width="1" />
  <text x="480" y="340" font-family="'Roboto', sans-serif"
  fill="black" font-size="18" text-anchor="middle" 
  alignment-baseline="middle">343</text>

  <polygon  
        points="490,380 510,380" 
        fill="#999999" stroke="#f9f9ff" stroke-width="4" />

  <polygon id="кабинет" 
        class="кабинеты" 
        points="660,300 660,230 750,230 750,300" 
        fill=" #E0E0E0" stroke="black" stroke-width="1" />
  <text x="705" y="265" font-family="'Roboto', sans-serif"
  fill="black" font-size="18" text-anchor="middle" 
  alignment-baseline="middle">334</text>

  <polygon  
        points="700,230 720,230" 
        fill="#999999" stroke="#f9f9ff" stroke-width="4" />

  <polygon id="кабинет" 
        class="кабинеты" 
        points="750,300 750,230 790,230 790,300" 
        fill=" #E0E0E0" stroke="black" stroke-width="1" />
  <text x="770" y="265" font-family="'Roboto', sans-serif"
  fill="black" font-size="18" text-anchor="middle" 
  alignment-baseline="middle">332</text>

  <polygon  
        points="750,240 750,260" 
        fill="#999999" stroke="#f9f9ff" stroke-width="4" />

  <polygon id="кабинет" 
        class="кабинеты" 
        points="790,300 790,230 830,230 830,300" 
        fill=" #E0E0E0" stroke="black" stroke-width="1" />
  <text x="810" y="265" font-family="'Roboto', sans-serif"
  fill="black" font-size="18" text-anchor="middle" 
  alignment-baseline="middle">330</text>

  <polygon  
        points="800,230 820,230" 
        fill="#999999" stroke="#f9f9ff" stroke-width="4" />

  <polygon id="кабинет" 
        class="кабинеты" 
        points="830,300 830,230 870,230 870,300" 
        fill=" #E0E0E0" stroke="black" stroke-width="1" />
  <text x="850" y="265" font-family="'Roboto', sans-serif"
  fill="black" font-size="18" text-anchor="middle" 
  alignment-baseline="middle">328</text>

  <polygon  
        points="840,230 860,230" 
        fill="#999999" stroke="#f9f9ff" stroke-width="4" />

  <polygon id="кабинет" 
        class="кабинеты" 
        points="870,300 870,230 910,230 910,300" 
        fill=" #E0E0E0" stroke="black" stroke-width="1" />
  <text x="890" y="265" font-family="'Roboto', sans-serif"
  fill="black" font-size="18" text-anchor="middle" 
  alignment-baseline="middle">326</text>

  <polygon  
        points="880,230 900,230" 
        fill="#999999" stroke="#f9f9ff" stroke-width="4" />

  <polygon id="кабинет" 
        class="кабинеты" 
        points="910,300 910,230 950,230 950,300" 
        fill=" #E0E0E0" stroke="black" stroke-width="1" />
  <text x="930" y="265" font-family="'Roboto', sans-serif"
  fill="black" font-size="18" text-anchor="middle" 
  alignment-baseline="middle">324</text>

  <polygon  
        points="920,230 940,230" 
        fill="#999999" stroke="#f9f9ff" stroke-width="4" />

  <polygon id="кабинет" 
        class="кабинеты" 
        points="950,300 950,230 990,230 990,300" 
        fill=" #E0E0E0" stroke="black" stroke-width="1" />

  <polygon  
        points="950,250 950,270" 
        fill="#999999" stroke="#f9f9ff" stroke-width="4" />

  <polygon id="кабинет" 
        class="кабинеты" 
        points="990,300 990,230 1080,230 1080,300" 
        fill=" #E0E0E0" stroke="black" stroke-width="1" />
  <text x="1030" y="265" font-family="'Roboto', sans-serif"
  fill="black" font-size="18" text-anchor="middle" 
  alignment-baseline="middle">322</text>

  <polygon  
        points="1030,230 1050,230" 
        fill="#999999" stroke="#f9f9ff" stroke-width="4" />

  <polygon
        points="100,100 300,100 300,120 1380,120 1380,100 
        1580,100 1580,300 1300,300 1300,830 1130,830 1130,300 
        1080,300 660,300 620,300 620,830 
        450,830 450,300 100,300" 
        fill="none" stroke="black" stroke-width="2" />

</svg>