<svg width="100%" height="100%" xmlns="http://www.w3.org/2000/svg">
  <!-- Фон карты -->
  <rect width="100%" height="100%" fill="#f0f0f0" />

  <polygon
        points="300,200 300,230 500,230 500,300 520,300 
        520,700 450,700 450,830 620,830 620,720 550,720 
        550,300 580,300 580,230 660,230 660,300 1060,300 
        1060,230 1140,230 1140,300 1130,300 1130,330 
        1200,330 1200,740 1130,740 1130,780 1200,780 
        1200,830 1230,830 1230,300 1580,300 1580,270 
        1180,270 1180,230 1230,230 1230,200 1000,200 
        1000,120 960,120 960,200 900,200 900,120 760,120 
        760,200 560,200 560,160 530,160 530,120 500,120 500,200" 
        fill="#f9f9ff" stroke="#6633FF" stroke-width="1" />
  <text x="540" y="215" font-family="'Roboto', sans-serif"
  fill="black" font-size="18" text-anchor="middle" 
  alignment-baseline="middle">Коридор</text>

  <polygon id="кабинет" 
        class="кабинеты" 
        points="100,100 100,300 300,300 300,100" 
        fill=" #E0E0E0" stroke="black" stroke-width="1" />
  <text x="200" y="210" font-family="'Roboto', sans-serif"
  fill="black" font-size="18" text-anchor="middle" 
  alignment-baseline="middle">138</text>

  <polygon id="кабинет" 
        class="кабинеты" 
        points="300,230 300,300 470,300 470,230" 
        fill=" #E0E0E0" stroke="black" stroke-width="1" />
  <text x="390" y="265" font-family="'Roboto', sans-serif"
  fill="black" font-size="18" text-anchor="middle" 
  alignment-baseline="middle">136</text>

  <polygon  
        points="380,230 400,230" 
        fill="#999999" stroke="#f9f9ff" stroke-width="4" /> 

  <polygon id="кабинет" 
        class="кабинеты" 
        points="300,120 300,200 380,200 380,120" 
        fill=" #E0E0E0" stroke="black" stroke-width="1" />
  <text x="340" y="160" font-family="'Roboto', sans-serif"
  fill="black" font-size="18" text-anchor="middle" 
  alignment-baseline="middle">139</text>

  <polygon  
        points="300,150 300,170" 
        fill="#999999" stroke="#f9f9ff" stroke-width="4" />  

  <polygon  
        points="300,205 300,225" 
        fill="#999999" stroke="#f9f9ff" stroke-width="4" />  

  <polygon  
        points="300,250 300,270" 
        fill="#999999" stroke="#f9f9ff" stroke-width="4" /> 

  <polygon id="кабинет" 
        class="кабинеты" 
        points="380,120 380,200 460,200 460,120" 
        fill=" #E0E0E0" stroke="black" stroke-width="1" />
  <text x="420" y="160" font-family="'Roboto', sans-serif"
  fill="black" font-size="18" text-anchor="middle" 
  alignment-baseline="middle">137</text>

  <polygon  
        points="420,200 440,200" 
        fill="#999999" stroke="#f9f9ff" stroke-width="4" /> 

  <polygon id="кабинет" 
        class="кабинеты" 
        points="460,120 460,200 500,200 500,120" 
        fill=" #E0E0E0" stroke="black" stroke-width="1" />
  <text x="480" y="160" font-family="'Roboto', sans-serif"
  fill="black" font-size="18" text-anchor="middle" 
  alignment-baseline="middle">135</text>

  <polygon  
        points="470,200 490,200" 
        fill="#999999" stroke="#f9f9ff" stroke-width="4" /> 

  <polygon id="буфет" 
        class="буфеты" 
        points="530,160 530,120 560,120 560,160" 
        fill="#FF6F61" stroke="black" stroke-width="1" />
  <image href="буфет.svg" x="530" y="120" width="30" height="30" />

  <polygon id="кабинет" 
        class="кабинеты" 
        points="560,120 560,200 600,200 600,120" 
        fill=" #E0E0E0" stroke="black" stroke-width="1" />
  <text x="580" y="160" font-family="'Roboto', sans-serif"
  fill="black" font-size="18" text-anchor="middle" 
  alignment-baseline="middle">134</text>

  <polygon  
        points="570,200 590,200" 
        fill="#999999" stroke="#f9f9ff" stroke-width="4" /> 

  <polygon id="кабинет" 
        class="кабинеты" 
        points="600,120 600,200 660,200 660,120" 
        fill=" #E0E0E0" stroke="black" stroke-width="1" />
  <text x="630" y="160" font-family="'Roboto', sans-serif"
  fill="black" font-size="18" text-anchor="middle" 
  alignment-baseline="middle">133</text>

  <polygon  
        points="620,200 640,200" 
        fill="#999999" stroke="#f9f9ff" stroke-width="4" /> 

  <polygon id="кабинет" 
        class="кабинеты" 
        points="660,120 660,200 760,200 760,120" 
        fill=" #E0E0E0" stroke="black" stroke-width="1" />
  <text x="700" y="160" font-family="'Roboto', sans-serif"
  fill="black" font-size="18" text-anchor="middle" 
  alignment-baseline="middle">131</text>

 <polygon id="лесница" 
        class="лесницыы" 
        points="580,300 580,230 660,230 660,300" 
        fill="rgb(82, 87, 126)" stroke="black" stroke-width="1" />
  <image href="лесница.svg" x="610" y="250" width="30" height="30" />

  <polygon id="лесница" 
        class="лесницыы" 
        points="1060,300 1060,230 1140,230 1140,300" 
        fill="rgb(82, 87, 126)" stroke="black" stroke-width="1" />
  <image href="лесница.svg" x="1080" y="250" width="30" height="30" />

  <polygon id="кабинет" 
        class="кабинеты" 
        points="900,120 900,200 960,200 960,120" 
        fill=" #E0E0E0" stroke="black" stroke-width="1" />
  <text x="930" y="160" font-family="'Roboto', sans-serif"
  fill="black" font-size="18" text-anchor="middle" 
  alignment-baseline="middle">130</text>

  <polygon id="кабинет" 
        class="кабинеты" 
        points="1000,120 1000,200 1040,200 1040,120" 
        fill=" #E0E0E0" stroke="black" stroke-width="1" />
  <text x="1020" y="160" font-family="'Roboto', sans-serif"
  fill="black" font-size="18" text-anchor="middle" 
  alignment-baseline="middle">129</text>

  <polygon  
        points="1010,200 1030,200" 
        fill="#999999" stroke="#f9f9ff" stroke-width="4" /> 

  <polygon id="кабинет" 
        class="кабинеты" 
        points="1040,120 1040,200 1100,200 1100,120" 
        fill=" #E0E0E0" stroke="black" stroke-width="1" />
  <text x="1070" y="160" font-family="'Roboto', sans-serif"
  fill="black" font-size="18" text-anchor="middle" 
  alignment-baseline="middle">128</text>

  <polygon  
        points="1080,200 1100,200" 
        fill="#999999" stroke="#f9f9ff" stroke-width="4" /> 

  <polygon id="кабинет" 
        class="кабинеты" 
        points="1100,120 1100,200 1140,200 1140,120" 
        fill=" #E0E0E0" stroke="black" stroke-width="1" />
  <text x="1120" y="160" font-family="'Roboto', sans-serif"
  fill="black" font-size="18" text-anchor="middle" 
  alignment-baseline="middle">126</text>

  <polygon  
        points="1110,200 1130,200" 
        fill="#999999" stroke="#f9f9ff" stroke-width="4" /> 

  <polygon id="кабинет" 
        class="кабинеты" 
        points="1140,120 1140,200 1180,200 1180,160 1390,160 1390,120" 
        fill=" #E0E0E0" stroke="black" stroke-width="1" />
  <text x="1160" y="160" font-family="'Roboto', sans-serif"
  fill="black" font-size="18" text-anchor="middle" 
  alignment-baseline="middle">125</text>

  <polygon  
        points="1150,200 1170,200" 
        fill="#999999" stroke="#f9f9ff" stroke-width="4" /> 

  <polygon id="кабинет" 
        class="кабинеты" 
        points="1180,160 1180,200 1230,200 1230,160" 
        fill=" #E0E0E0" stroke="black" stroke-width="1" />
  <text x="1205" y="180" font-family="'Roboto', sans-serif"
  fill="black" font-size="18" text-anchor="middle" 
  alignment-baseline="middle">127</text>

  <polygon id="кабинет" 
        class="кабинеты" 
        points="1180,230 1180,270 1230,270 1230,230" 
        fill=" #E0E0E0" stroke="black" stroke-width="1" />
  <text x="1205" y="250" font-family="'Roboto', sans-serif"
  fill="black" font-size="18" text-anchor="middle" 
  alignment-baseline="middle">124</text>

  <polygon id="кабинет" 
        class="кабинеты" 
        points="1230,160 1230,270 1380,270 1380,160" 
        fill=" #E0E0E0" stroke="black" stroke-width="1" />

  <polygon  
        points="1230,270 1260,270" 
        fill="#999999" stroke="#f9f9ff" stroke-width="4" /> 

  <polygon id="столовая" 
        class="столовые" 
        points="1380,100 1380,270 1580,270 1580,100" 
        fill="#FF6F61" stroke="black" stroke-width="1" />
  <image href="столовая.svg" x="1460" y="170" width="30" height="30" />

  <polygon  
        points="1450,270 1480,270" 
        fill="#999999" stroke="#f9f9ff" stroke-width="4" /> 

 <polygon id="кабинет" 
        class="кабинеты" 
        points="470,230 470,300 500,300 500,230" 
        fill=" #E0E0E0" stroke="black" stroke-width="1" />

  <polygon id="кабинет" 
        class="кабинеты" 
        points="450,300 450,520 520,520 520,300" 
        fill=" #E0E0E0" stroke="black" stroke-width="1" />
  <text x="485" y="420" font-family="'Roboto', sans-serif"
  fill="black" font-size="18" text-anchor="middle" 
  alignment-baseline="middle">141</text>

  <polygon  
        points="520,320 520,340" 
        fill="#999999" stroke="#f9f9ff" stroke-width="4" /> 

  <polygon  
        points="520,480 520,500" 
        fill="#999999" stroke="#f9f9ff" stroke-width="4" /> 

  <polygon id="кабинет" 
        class="кабинеты" 
        points="450,520 450,600 520,600 520,520" 
        fill=" #E0E0E0" stroke="black" stroke-width="1" />
  <text x="485" y="560" font-family="'Roboto', sans-serif"
  fill="black" font-size="18" text-anchor="middle" 
  alignment-baseline="middle">143</text>

  <polygon  
        points="520,580 520,600" 
        fill="#999999" stroke="#f9f9ff" stroke-width="4" /> 

  <polygon id="лесница" 
        class="лесницыы" 
        points="450,640 450,600 520,600 520,640" 
        fill="rgb(82, 87, 126)" stroke="black" stroke-width="1" />
  <image href="лесница.svg" x="470" y="605" width="30" height="30" />

  <polygon id="кабинет" 
        class="кабинеты" 
        points="450,640 450,700 520,700 520,640" 
        fill=" #E0E0E0" stroke="black" stroke-width="1" />
  <text x="485" y="660" font-family="'Roboto', sans-serif"
  fill="black" font-size="18" text-anchor="middle" 
  alignment-baseline="middle">152</text>

  <polygon  
        points="470,700 490,700" 
        fill="#999999" stroke="#f9f9ff" stroke-width="4" /> 

  <polygon id="туалет" 
        class="туалетженский" 
        points="550,380 550,300 620,300 620,380" 
        fill="rgb(82, 87, 126)" stroke="black" stroke-width="1" />
  <image href="женский туалет.svg" x="570" y="330" width="30" height="30" />

  <polygon id="кабинет" 
        class="кабинеты" 
        points="550,460 550,380 620,380 620,460" 
        fill=" #E0E0E0" stroke="black" stroke-width="1" />
  <text x="585" y="420" font-family="'Roboto', sans-serif"
  fill="black" font-size="18" text-anchor="middle" 
  alignment-baseline="middle">140</text>

  <polygon id="кабинет" 
        class="кабинеты" 
        points="550,540 550,460 620,460 620,540" 
        fill=" #E0E0E0" stroke="black" stroke-width="1" />
  <text x="585" y="500" font-family="'Roboto', sans-serif"
  fill="black" font-size="18" text-anchor="middle" 
  alignment-baseline="middle">142</text>

  <polygon  
        points="580,460 600,460" 
        fill="#999999" stroke="#f9f9ff" stroke-width="4" /> 

  <polygon  
        points="550,510 550,530" 
        fill="#999999" stroke="#f9f9ff" stroke-width="4" /> 

  <polygon id="кабинет" 
        class="кабинеты" 
        points="550,580 550,540 620,540 620,580" 
        fill=" #E0E0E0" stroke="black" stroke-width="1" />
  <text x="585" y="560" font-family="'Roboto', sans-serif"
  fill="black" font-size="18" text-anchor="middle" 
  alignment-baseline="middle">144</text>

  <polygon id="кабинет" 
        class="кабинеты" 
        points="550,680 550,580 620,580 620,680" 
        fill=" #E0E0E0" stroke="black" stroke-width="1" />
  <text x="585" y="630" font-family="'Roboto', sans-serif"
  fill="black" font-size="18" text-anchor="middle" 
  alignment-baseline="middle">146</text>

  <polygon  
        points="550,640 550,660" 
        fill="#999999" stroke="#f9f9ff" stroke-width="4" /> 

  <polygon id="кабинет" 
        class="кабинеты" 
        points="550,720 550,680 620,680 620,720" 
        fill=" #E0E0E0" stroke="black" stroke-width="1" />
  <text x="585" y="700" font-family="'Roboto', sans-serif"
  fill="black" font-size="18" text-anchor="middle" 
  alignment-baseline="middle">148</text>

  <polygon  
        points="550,690 550,710" 
        fill="#999999" stroke="#f9f9ff" stroke-width="4" /> 

 <polygon id="лесница" 
        class="лесницыы" 
        points="1130,370 1130,330 1200,330 1200,370" 
        fill="rgb(82, 87, 126)" stroke="black" stroke-width="1" />
  <image href="туалет мужской.svg" x="1150" y="335" width="30" height="30" />

  <polygon id="кабинет" 
        class="кабинеты" 
        points="1130,440 1130,370 1200,370 1200,440" 
        fill=" #E0E0E0" stroke="black" stroke-width="1" />
  <text x="1165" y="405" font-family="'Roboto', sans-serif"
  fill="black" font-size="18" text-anchor="middle" 
  alignment-baseline="middle">118</text>

  <polygon  
        points="1200,395 1200,415" 
        fill="#999999" stroke="#f9f9ff" stroke-width="4" /> 

  <polygon id="кабинет" 
        class="кабинеты" 
        points="1130,490 1130,440 1200,440 1200,490" 
        fill=" #E0E0E0" stroke="black" stroke-width="1" />
  <text x="1165" y="465" font-family="'Roboto', sans-serif"
  fill="black" font-size="18" text-anchor="middle" 
  alignment-baseline="middle">116</text>

  <polygon  
        points="1200,455 1200,475" 
        fill="#999999" stroke="#f9f9ff" stroke-width="4" />

  <polygon id="кабинет" 
        class="кабинеты" 
        points="1130,540 1130,490 1200,490 1200,540" 
        fill=" #E0E0E0" stroke="black" stroke-width="1" />
  <text x="1165" y="515" font-family="'Roboto', sans-serif"
  fill="black" font-size="18" text-anchor="middle" 
  alignment-baseline="middle">114</text>

  <polygon  
        points="1140,490 1160,490" 
        fill="#999999" stroke="#f9f9ff" stroke-width="4" />

  <polygon id="кабинет" 
        class="кабинеты" 
        points="1130,580 1130,540 1200,540 1200,580" 
        fill=" #E0E0E0" stroke="black" stroke-width="1" />
  <text x="1165" y="560" font-family="'Roboto', sans-serif"
  fill="black" font-size="18" text-anchor="middle" 
  alignment-baseline="middle">112</text>

  <polygon  
        points="1200,550 1200,570" 
        fill="#999999" stroke="#f9f9ff" stroke-width="4" />

  <polygon id="кабинет" 
        class="кабинеты" 
        points="1130,620 1130,580 1200,580 1200,620" 
        fill=" #E0E0E0" stroke="black" stroke-width="1" />
  <text x="1165" y="600" font-family="'Roboto', sans-serif"
  fill="black" font-size="18" text-anchor="middle" 
  alignment-baseline="middle">110</text>

  <polygon  
        points="1200,590 1200,610" 
        fill="#999999" stroke="#f9f9ff" stroke-width="4" />

  <polygon id="кабинет" 
        class="кабинеты" 
        points="1130,670 1130,620 1200,620 1200,670" 
        fill=" #E0E0E0" stroke="black" stroke-width="1" />
  <text x="1165" y="645" font-family="'Roboto', sans-serif"
  fill="black" font-size="18" text-anchor="middle" 
  alignment-baseline="middle">106</text>

  <polygon  
        points="1200,635 1200,655" 
        fill="#999999" stroke="#f9f9ff" stroke-width="4" />

  <polygon id="кабинет" 
        class="кабинеты" 
        points="1130,740 1130,670 1200,670 1200,740" 
        fill=" #E0E0E0" stroke="black" stroke-width="1" />
  <text x="1165" y="705" font-family="'Roboto', sans-serif"
  fill="black" font-size="18" text-anchor="middle" 
  alignment-baseline="middle">104</text>

  <polygon  
        points="1200,680 1200,700" 
        fill="#999999" stroke="#f9f9ff" stroke-width="4" />

  <polygon id="кабинет" 
        class="кабинеты" 
        points="1130,830 1130,780 1200,780 1200,830" 
        fill=" #E0E0E0" stroke="black" stroke-width="1" />
  <text x="1165" y="805" font-family="'Roboto', sans-serif"
  fill="black" font-size="18" text-anchor="middle" 
  alignment-baseline="middle">102</text>

  <polygon  
        points="1200,795 1200,815" 
        fill="#999999" stroke="#f9f9ff" stroke-width="4" />

  <polygon id="кабинет" 
        class="кабинеты" 
        points="1230,830 1230,780 1300,780 1300,830" 
        fill=" #E0E0E0" stroke="black" stroke-width="1" />
  <text x="1265" y="805" font-family="'Roboto', sans-serif"
  fill="black" font-size="18" text-anchor="middle" 
  alignment-baseline="middle">101</text>

  <polygon id="кабинет" 
        class="кабинеты" 
        points="1230,780 1230,740 1300,740 1300,780" 
        fill=" #E0E0E0" stroke="black" stroke-width="1" />
  <text x="1265" y="760" font-family="'Roboto', sans-serif"
  fill="black" font-size="18" text-anchor="middle" 
  alignment-baseline="middle">103</text>

  <polygon  
        points="1240,780 1260,780" 
        fill="#999999" stroke="#f9f9ff" stroke-width="4" />

  <polygon  
        points="1230,750 1230,770" 
        fill="#999999" stroke="#f9f9ff" stroke-width="4" />

  <polygon id="кабинет" 
        class="кабинеты" 
        points="1230,740 1230,710 1300,710 1300,740" 
        fill=" #E0E0E0" stroke="black" stroke-width="1" />

  <polygon id="кабинет" 
        class="кабинеты" 
        points="1230,710 1230,670 1300,670 1300,710" 
        fill=" #E0E0E0" stroke="black" stroke-width="1" />
  <text x="1265" y="690" font-family="'Roboto', sans-serif"
  fill="black" font-size="18" text-anchor="middle" 
  alignment-baseline="middle">105</text>

  <polygon  
        points="1230,680 1230,700" 
        fill="#999999" stroke="#f9f9ff" stroke-width="4" />

  <polygon id="кабинет" 
        class="кабинеты" 
        points="1230,670 1230,620 1300,620 1300,670" 
        fill=" #E0E0E0" stroke="black" stroke-width="1" />
  <text x="1265" y="645" font-family="'Roboto', sans-serif"
  fill="black" font-size="18" text-anchor="middle" 
  alignment-baseline="middle">109</text>

  <polygon  
        points="1230,635 1230,655" 
        fill="#999999" stroke="#f9f9ff" stroke-width="4" />

  <polygon id="лесница" 
        class="лесницыы" 
        points="1230,620 1230,580 1300,580 1300,620" 
        fill="rgb(82, 87, 126)" stroke="black" stroke-width="1" />
  <image href="лесница.svg" x="1250" y="585" width="30" height="30" />

  <polygon id="кабинет" 
        class="кабинеты" 
        points="1230,580 1230,540 1300,540 1300,580" 
        fill=" #E0E0E0" stroke="black" stroke-width="1" />
  <text x="1265" y="560" font-family="'Roboto', sans-serif"
  fill="black" font-size="18" text-anchor="middle" 
  alignment-baseline="middle">111</text>

  <polygon  
        points="1230,550 1230,570" 
        fill="#999999" stroke="#f9f9ff" stroke-width="4" />

  <polygon id="кабинет" 
        class="кабинеты" 
        points="1230,540 1230,440 1300,440 1300,540" 
        fill=" #E0E0E0" stroke="black" stroke-width="1" />
  <text x="1265" y="490" font-family="'Roboto', sans-serif"
  fill="black" font-size="18" text-anchor="middle" 
  alignment-baseline="middle">113</text>

  <polygon  
        points="1230,530 1230,510" 
        fill="#999999" stroke="#f9f9ff" stroke-width="4" />

  <polygon id="кабинет" 
        class="кабинеты" 
        points="1230,420 1230,300 1300,300 1300,350 1270,350 1270,420" 
        fill=" #E0E0E0" stroke="black" stroke-width="1" />
  <text x="1265" y="330" font-family="'Roboto', sans-serif"
  fill="black" font-size="18" text-anchor="middle" 
  alignment-baseline="middle">119</text>

  <polygon  
        points="1230,400 1230,380" 
        fill="#999999" stroke="#f9f9ff" stroke-width="4" />

  <polygon id="кабинет" 
        class="кабинеты" 
        points="1300,350 1270,350 1270,390 1300,390" 
        fill=" #E0E0E0" stroke="black" stroke-width="1" />
  <text x="1285" y="370" font-family="'Roboto', sans-serif"
  fill="black" font-size="15" text-anchor="middle" 
  alignment-baseline="middle">117</text>

  <polygon  
        points="1270,360 1270,380" 
        fill="#999999" stroke="#f9f9ff" stroke-width="4" />

  <polygon id="кабинет" 
        class="кабинеты" 
        points="1300,390 1270,390 1270,420 1230,420 1230,440 1300,440" 
        fill=" #E0E0E0" stroke="black" stroke-width="1" />
  <text x="1285" y="410" font-family="'Roboto', sans-serif"
  fill="black" font-size="15" text-anchor="middle" 
  alignment-baseline="middle">115</text>

  <polygon  
        points="1240,420 1260,420" 
        fill="#999999" stroke="#f9f9ff" stroke-width="4" />

  <polygon
        points="100,100 300,100 300,120 1380,120 1380,100 
        1580,100 1580,300 1300,300 1300,830 1130,830 1130,300 
        1080,300 660,300 620,300 620,830 
        450,830 450,300 100,300" 
        fill="none" stroke="black" stroke-width="2" />

</svg>