<svg width="100%" height="100%" xmlns="http://www.w3.org/2000/svg">
  <!-- Фон карты -->
  <rect width="100%" height="100%" fill="#f0f0f0" />

  <!-- Границы кабинетов -->
  <polygon
        points="50,200 50,250 300,250 300,250 480,250 480,200 
        1100,200 1100,250 1490,250 1530,225 1490,200 1150,200 
        1150,100 1100,100 1100,150 820,150 820,50 720,50 720,150 480,150 
        480,100 440,100 440,200 360,200 " 
        fill="#f9f9ff" stroke="#6633FF" stroke-width="2" />
  <text x="100" y="220" font-family="'Roboto', sans-serif"
  fill="black" font-size="18" text-anchor="middle" 
  alignment-baseline="middle">Коридор</text>

  <polygon id="кабинет" 
        class="кабинеты" 
        points="50,50 50,200 150,200 150,50" 
        fill="#999999" stroke="black" stroke-width="2" />
  <text x="100" y="100" font-family="'Roboto', sans-serif" fill="black" font-size="18" text-anchor="middle" 
  alignment-baseline="middle">1</text>

  <polygon  
        points="130,200 110,200" 
        fill="#999999" stroke="#f9f9ff" stroke-width="4" />

  <polygon id="кабинет" 
        class="кабинеты" 
        points="50,250 50,340 110,340 110,250" 
        fill="#999999" stroke="black" stroke-width="2" />
  <text x="60" y="280" font-family="'Roboto', sans-serif" fill="black" font-size="18" text-anchor="middle" 
  alignment-baseline="middle">2</text>

  <polygon 
        points="70,250 90,250" 
        fill="#999999" stroke="#f9f9ff" stroke-width="4" />


  <polygon id="кабинет" 
        class="кабинеты" 
        points="110,250 110,340 160,340 160,250"  
        fill="#999999" stroke="black" stroke-width="2" />
  <text x="120" y="280" font-family="'Roboto', sans-serif" fill="black" font-size="18" text-anchor="middle" 
  alignment-baseline="middle">3</text>

  <polygon 
        points="125,250 145,250" 
        fill="#999999" stroke="#f9f9ff" stroke-width="4" />

  <polygon id="кабинет" 
        class="кабинеты" 
        points="160,250 160,340 260,340 260,250"  
        fill="#999999" stroke="black" stroke-width="2" />
  <text x="180" y="280" font-family="'Roboto', sans-serif" fill="black" font-size="18" text-anchor="middle" 
  alignment-baseline="middle">4</text>

  <polygon  
        points="180,250 200,250" 
        fill="#999999" stroke="#f9f9ff" stroke-width="4" />

  <polygon id="кабинет" 
        class="кабинеты" 
        points="260,250 260,340 305,340 305,250"  
        fill="#999999" stroke="black" stroke-width="2" />
  <text x="280" y="280" font-family="'Roboto', sans-serif" fill="black" font-size="18" text-anchor="middle" 
  alignment-baseline="middle">5</text>

  <polygon  
        points="275,250 285,250" 
        fill="#999999" stroke="#f9f9ff" stroke-width="4" />

  <polygon id="кабинет" 
        class="кабинеты" 
        points="305,250 305,340 340,340 340,250"  
        fill="#999999" stroke="black" stroke-width="2" />
  <text x="320" y="280" font-family="'Roboto', sans-serif" fill="black" font-size="18" text-anchor="middle" 
  alignment-baseline="middle">6</text>

  <polygon  
        points="315,250 325,250" 
        fill="#999999" stroke="#f9f9ff" stroke-width="4" />

  <polygon id="кабинет" 
        class="кабинеты" 
        points="340,250 340,340 385,340 385,250"  
        fill="#999999" stroke="black" stroke-width="2" />
  <text x="360" y="280" font-family="'Roboto', sans-serif" fill="black" font-size="18" text-anchor="middle" 
  alignment-baseline="middle">7</text>

  <polygon  
        points="350,250 370,250" 
        fill="#999999" stroke="#f9f9ff" stroke-width="4" />

  <polygon id="кабинет" 
        class="кабинеты" 
        points="385,250 385,340 480,340 480,250"  
        fill="#999999" stroke="black" stroke-width="2" />
  <text x="400" y="280" font-family="'Roboto', sans-serif" fill="black" font-size="18" text-anchor="middle" 
  alignment-baseline="middle">8</text>

  <polygon  
        points="400,250 420,250" 
        fill="#999999" stroke="#f9f9ff" stroke-width="4" />

  <polygon id="кабинет" 
        class="кабинеты" 
        points="480,200 480,300 520,300 520,200"  
        fill="#999999" stroke="black" stroke-width="2" />
  <text x="500" y="250" font-family="'Roboto', sans-serif" fill="black" font-size="18" text-anchor="middle" 
  alignment-baseline="middle">9</text>

  <polygon  
        points="495,200 505,200" 
        fill="#999999" stroke="#f9f9ff" stroke-width="4" />

  <polygon id="кабинет" 
        class="кабинеты" 
        points="520,200 520,300 560,300 560,200"  
        fill="#999999" stroke="black" stroke-width="2" />
  <text x="540" y="250" font-family="'Roboto', sans-serif" fill="black" font-size="18" text-anchor="middle" 
  alignment-baseline="middle">10</text>

  <polygon  
        points="535,200 545,200" 
        fill="#999999" stroke="#f9f9ff" stroke-width="4" />

  <polygon id="кабинет" 
        class="кабинеты" 
        points="560,200 560,300 660,300 660,200"  
        fill="#999999" stroke="black" stroke-width="2" />
  <text x="600" y="250" font-family="'Roboto', sans-serif" fill="black" font-size="18" text-anchor="middle" 
  alignment-baseline="middle">11</text>

  <polygon  
        points="590,200 610,200" 
        fill="#999999" stroke="#f9f9ff" stroke-width="4" />

  <polygon id="кабинет" 
        class="кабинеты" 
        points="660,200 660,300 770,300 770,200"  
        fill="#999999" stroke="black" stroke-width="2" />
  <text x="700" y="250" font-family="'Roboto', sans-serif" fill="black" font-size="18" text-anchor="middle" 
  alignment-baseline="middle">12</text>

  <polygon  
        points="700,200 720,200" 
        fill="#999999" stroke="#f9f9ff" stroke-width="4" />

  <polygon id="кабинет" 
        class="кабинеты" 
        points="770,200 770,300 820,300 820,200"  
        fill="#999999" stroke="black" stroke-width="2" />
  <text x="800" y="250" font-family="'Roboto', sans-serif" fill="black" font-size="18" text-anchor="middle" 
  alignment-baseline="middle">13</text>

  <polygon  
        points="780,200 800,200" 
        fill="#999999" stroke="#f9f9ff" stroke-width="4" />

  <polygon id="кабинет" 
        class="кабинеты" 
        points="820,200 820,300 870,300 870,200"  
        fill="#999999" stroke="black" stroke-width="2" />
  <text x="840" y="250" font-family="'Roboto', sans-serif" fill="black" font-size="18" text-anchor="middle" 
  alignment-baseline="middle">14</text>

  <polygon  
        points="835,200 850,200" 
        fill="#999999" stroke="#f9f9ff" stroke-width="4" />
  
  <polygon id="кабинет" 
        class="кабинеты" 
        points="870,200 870,300 920,300 920,200"  
        fill="#999999" stroke="black" stroke-width="2" />
  <text x="890" y="250" font-family="'Roboto', sans-serif" fill="black" font-size="18" text-anchor="middle" 
  alignment-baseline="middle">15</text>

  <polygon  
        points="885,200 900,200" 
        fill="#999999" stroke="#f9f9ff" stroke-width="4" />

  <polygon id="кабинет" 
        class="кабинеты" 
        points="920,200 920,300 1060,300 1060,200"  
        fill="#999999" stroke="black" stroke-width="2" />
  <text x="980" y="250" font-family="'Roboto', sans-serif" fill="black" font-size="18" text-anchor="middle" 
  alignment-baseline="middle">16</text>

  <polygon  
        points="920,210 920,230" 
        fill="#999999" stroke="#f9f9ff" stroke-width="4" />

  <polygon id="кабинет" 
        class="кабинеты" 
        points="1060,230 1060,300 1100,300 1100,230"  
        fill="#999999" stroke="black" stroke-width="2" />
  <text x="1070" y="250" font-family="'Roboto', sans-serif" fill="black" font-size="18" text-anchor="middle" 
  alignment-baseline="middle">17</text>

  <polygon  
        points="1060,270 1060,290" 
        fill="#999999" stroke="#f9f9ff" stroke-width="4" />

  <polygon id="кабинет" 
        class="кабинеты" 
        points="1060,200 1060,230 1100,230 1100,200"  
        fill="#999999" stroke="black" stroke-width="2" />

  <polygon  
        points="1070,230 1090,230" 
        fill="#999999" stroke="#f9f9ff" stroke-width="4" />

  <polygon id="кабинет" 
        class="кабинеты" 
        points="1100,250 1100,340 1140,340 1140,250"  
        fill="#999999" stroke="black" stroke-width="2" />
  <text x="1120" y="300" font-family="'Roboto', sans-serif" fill="black" font-size="18" text-anchor="middle" 
  alignment-baseline="middle">18</text> 

  <polygon id="кабинет" 
        class="кабинеты" 
        points="1140,250 1140,340 1320,340 1320,250"  
        fill="#999999" stroke="black" stroke-width="2" />
  <text x="1200" y="300" font-family="'Roboto', sans-serif" fill="black" font-size="18" text-anchor="middle" 
  alignment-baseline="middle">19</text>

  <polygon  
        points="1140,260 1140,280" 
        fill="#999999" stroke="#f9f9ff" stroke-width="4" />

  <polygon  
        points="1160,250 1180,250" 
        fill="#999999" stroke="#f9f9ff" stroke-width="4" />

  <polygon id="кабинет" 
        class="кабинеты" 
        points="1285,250 1285,340 1320,340 1320,250"  
        fill="#999999" stroke="black" stroke-width="2" />
  <text x="1300" y="300" font-family="'Roboto', sans-serif" fill="black" font-size="18" text-anchor="middle" 
  alignment-baseline="middle">20</text>

  <polygon  
        points="1295,250 1310,250" 
        fill="#999999" stroke="#f9f9ff" stroke-width="4" />

  <polygon id="кабинет" 
        class="кабинеты" 
        points="1320,250 1320,340 1355,340 1355,250"  
        fill="#999999" stroke="black" stroke-width="2" />
  <text x="1340" y="300" font-family="'Roboto', sans-serif" fill="black" font-size="18" text-anchor="middle" 
  alignment-baseline="middle">21</text>

  <polygon id="кабинет" 
        class="кабинеты" 
        points="1355,250 1355,280 1390,280 1390,250"  
        fill="#999999" stroke="black" stroke-width="2" />
  <text x="1370" y="260" font-family="'Roboto', sans-serif" fill="black" font-size="18" text-anchor="middle" 
  alignment-baseline="middle">23</text>

  <polygon  
        points="1360,250 1380,250" 
        fill="#999999" stroke="#f9f9ff" stroke-width="4" />

  <polygon  
        points="1355,260 1355,270" 
        fill="#999999" stroke="#f9f9ff" stroke-width="4" />

  <polygon id="кабинет" 
        class="кабинеты" 
        points="1355,280 1355,340 1390,340 1390,280"  
        fill="#999999" stroke="black" stroke-width="2" />
  <text x="1370" y="300" font-family="'Roboto', sans-serif" fill="black" font-size="18" text-anchor="middle" 
  alignment-baseline="middle">22</text>

  <polygon  
        points="1420,250 1440,250" 
        fill="#999999" stroke="#f9f9ff" stroke-width="4" />

  <polygon id="кабинет" 
        class="кабинеты" 
        points="1390,250 1390,340 1435,340 1435,250"  
        fill="#999999" stroke="black" stroke-width="2" />
  <text x="1410" y="300" font-family="'Roboto', sans-serif" fill="black" font-size="18" text-anchor="middle" 
  alignment-baseline="middle">24</text>

  <polygon  
        points="1390,260 1390,270" 
        fill="#999999" stroke="#f9f9ff" stroke-width="4" />

  <polygon id="кабинет" 
        class="кабинеты" 
        points="1435,250 1435,340 1490,340 1490,250"  
        fill="#999999" stroke="black" stroke-width="2" />
  <text x="1450" y="300" font-family="'Roboto', sans-serif" fill="black" font-size="18" text-anchor="middle" 
  alignment-baseline="middle">25</text>

  <polygon  
        points="1435,315 1435,330" 
        fill="#999999" stroke="#f9f9ff" stroke-width="4" />

  <polygon id="кабинет" 
        class="кабинеты" 
        points="150,50 150,200 240,200 240,50" 
        fill="#999999" stroke="black" stroke-width="2" />
  <text x="180" y="100" font-family="'Roboto', sans-serif" fill="black" font-size="18" text-anchor="middle" 
  alignment-baseline="middle">26</text>

  <polygon  
        points="200,200 220,200" 
        fill="#999999" stroke="#f9f9ff" stroke-width="4" />

  <polygon id="кабинет" 
        class="кабинеты" 
        points="240,100 240,200 280,200 280,100" 
        fill="#999999" stroke="black" stroke-width="2" />
  <text x="260" y="130" font-family="'Roboto', sans-serif" fill="black" font-size="18" text-anchor="middle" 
  alignment-baseline="middle">27</text>

  <polygon  
        points="250,200 270,200" 
        fill="#999999" stroke="#f9f9ff" stroke-width="4" />

  <polygon id="кабинет" 
        class="кабинеты" 
        points="280,100 280,200 320,200 320,100" 
        fill="#999999" stroke="black" stroke-width="2" />
  <text x="300" y="130" font-family="'Roboto', sans-serif" fill="black" font-size="18" text-anchor="middle" 
  alignment-baseline="middle">28</text>

  <polygon  
        points="290,200 310,200" 
        fill="#999999" stroke="#f9f9ff" stroke-width="4" />

  <polygon id="кабинет" 
        class="кабинеты" 
        points="320,100 320,200 360,200 360,100" 
        fill="#999999" stroke="black" stroke-width="2" />
  <text x="340" y="130" font-family="'Roboto', sans-serif" fill="black" font-size="18" text-anchor="middle" 
  alignment-baseline="middle">29</text>

  <polygon  
        points="330,200 340,200" 
        fill="#999999" stroke="#f9f9ff" stroke-width="4" />

  <polygon 
        points="360,100 360,200 400,200 400,100" 
        fill="#663366" stroke="black" stroke-width="2" />
  <image href="лесница.svg" x="370" y="140" width="30" height="30" />

  <polygon  
        points="370,200 390,200" 
        fill="#999999" stroke="#f9f9ff" stroke-width="4" />

  <polygon 
        points="400,100 400,200 440,200 440,100" 
        fill="#663366" stroke="black" stroke-width="2" />
  <image href="лифт2.svg" x="405" y="140" width="30" height="30" />

  <polygon id="кабинет" 
        class="кабинеты" 
        points="480,50 480,150 520,150 520,50" 
        fill="#999999" stroke="black" stroke-width="2" />
  <text x="500" y="130" font-family="'Roboto', sans-serif" fill="black" font-size="18" text-anchor="middle" 
  alignment-baseline="middle">30</text>

  <polygon  
        points="490,150 510,150" 
        fill="#999999" stroke="#f9f9ff" stroke-width="4" />

  <polygon id="кабинет" 
        class="кабинеты" 
        points="520,50 520,150 560,150 560,50" 
        fill="#999999" stroke="black" stroke-width="2" />
  <text x="540" y="130" font-family="'Roboto', sans-serif" fill="black" font-size="18" text-anchor="middle" 
  alignment-baseline="middle">31</text>

  <polygon  
        points="530,150 550,150" 
        fill="#999999" stroke="#f9f9ff" stroke-width="4" />

  <polygon id="кабинет" 
        class="кабинеты" 
        points="560,50 560,150 640,150 640,50" 
        fill="#999999" stroke="black" stroke-width="2" />
  <text x="580" y="130" font-family="'Roboto', sans-serif" fill="black" font-size="18" text-anchor="middle" 
  alignment-baseline="middle">32</text>

  <polygon  
        points="610,150 630,150" 
        fill="#999999" stroke="#f9f9ff" stroke-width="4" />

  <polygon id="кабинет" 
        class="кабинеты" 
        points="640,50 640,150 680,150 680,50" 
        fill="#999999" stroke="black" stroke-width="2" />
  <text x="660" y="130" font-family="'Roboto', sans-serif" fill="black" font-size="18" text-anchor="middle" 
  alignment-baseline="middle">33</text>

  <polygon  
        points="650,150 670,150" 
        fill="#999999" stroke="#f9f9ff" stroke-width="4" />

  <polygon 
        points="680,50 680,150 720,150 720,50" 
        fill="#663366" stroke="black" stroke-width="2" />
  <image href="лифт2.svg" x="685" y="90" width="30" height="30" />

  <polygon 
        points="820,50 820,150 920,150 920,50" 
        fill="#663366" stroke="black" stroke-width="2" />
  <image href="лесница.svg" x="880" y="90" width="30" height="30" />

  <polygon id="кабинет" 
        class="кабинеты" 
        points="920,50 920,150 1060,150 1060,50" 
        fill="#999999" stroke="black" stroke-width="2" />
  <text x="1000" y="130" font-family="'Roboto', sans-serif" fill="black" font-size="18" text-anchor="middle" 
  alignment-baseline="middle">34</text>

  <polygon id="кабинет" 
        class="кабинеты" 
        points="1060,50 1060,150 1100,150 1100,50" 
        fill="#999999" stroke="black" stroke-width="2" />
  <text x="1080" y="130" font-family="'Roboto', sans-serif" fill="black" font-size="18" text-anchor="middle" 
  alignment-baseline="middle">35</text>

  <polygon  
        points="940,150 960,150" 
        fill="#999999" stroke="#f9f9ff" stroke-width="4" />

  <polygon  
        points="1040,150 1060,150" 
        fill="#999999" stroke="#f9f9ff" stroke-width="4" />

  <polygon 
        points="1140,100 1140,200 1175,200 1175,100" 
        fill="#663366" stroke="black" stroke-width="2" />
  <image href="лифт2.svg" x="1140" y="140" width="30" height="30" />

  <polygon 
        points="1175,100 1175,200 1210,200 1210,100" 
        fill="#663366" stroke="black" stroke-width="2" />
  <image href="лесница.svg" x="1180" y="140" width="30" height="30" />

  <polygon 
        points="1210,100 1210,200 1245,200 1245,100" 
        fill="#663366" stroke="black" stroke-width="2" />
  <image href="туалет мужской.svg" x="1213" y="140" width="30" height="30" />

  <polygon id="кабинет" 
        class="кабинеты" 
        points="1245,100 1245,200 1285,200 1285,100" 
        fill="#999999" stroke="black" stroke-width="2" />
  <text x="1260" y="130" font-family="'Roboto', sans-serif" fill="black" font-size="18" text-anchor="middle" 
  alignment-baseline="middle">32</text>

  <polygon  
        points="1255,200 1275,200" 
        fill="#999999" stroke="#f9f9ff" stroke-width="4" />

  <polygon id="кабинет" 
        class="кабинеты" 
        points="1285,100 1285,200 1320,200 1320,100" 
        fill="#999999" stroke="black" stroke-width="2" />
  <text x="1300" y="130" font-family="'Roboto', sans-serif" fill="black" font-size="18" text-anchor="middle" 
  alignment-baseline="middle">33</text>

  <polygon  
        points="1295,200 1310,200" 
        fill="#999999" stroke="#f9f9ff" stroke-width="4" />

  <polygon id="кабинет" 
        class="кабинеты" 
        points="1320,50 1320,200 1405,200 1405,50" 
        fill="#999999" stroke="black" stroke-width="2" />
  <text x="1360" y="130" font-family="'Roboto', sans-serif" fill="black" font-size="18" text-anchor="middle" 
  alignment-baseline="middle">34</text>

  <polygon  
        points="1370,200 1390,200" 
        fill="#999999" stroke="#f9f9ff" stroke-width="4" />

  <polygon id="кабинет" 
        class="кабинеты" 
        points="1405,50 1405,200 1490,200 1490,50" 
        fill="#999999" stroke="black" stroke-width="2" />
  <text x="1440" y="130" font-family="'Roboto', sans-serif" fill="black" font-size="18" text-anchor="middle" 
  alignment-baseline="middle">35</text>

  <polygon  
        points="1420,200 1440,200" 
        fill="#999999" stroke="#f9f9ff" stroke-width="4" />

  

  <polygon
        points="50,50 50,340 480,340 480,300 1100,300 1100,340 
        1490,340 1490,250 1530,225 1490,200 1490,50 1320,50 1320,100 1100,100 1100,50 480,50 480,100 
        240,100 240,50" 
        fill="none" stroke="black" stroke-width="4" />

  
</svg>